ISO-10303-21;
HEADER;
/* Generated by software containing ST-Developer
 * from STEP Tools, Inc. (www.steptools.com) 
 */

FILE_DESCRIPTION(
/* description */ (''),
/* implementation_level */ '2;1');

FILE_NAME(
/* name */ 
'X:/TA/nanoLogger/lib/nanoLogger.pretty/3D models/TSM-102-01-F-SH.step',

/* time_stamp */ '2021-09-10T12:00:08+02:00',
/* author */ (''),
/* organization */ (''),
/* preprocessor_version */ 'ST-DEVELOPER v18.1',
/* originating_system */ 'Autodesk Translation Framework v10.10.0.1391',

/* authorisation */ '');

FILE_SCHEMA (('AUTOMOTIVE_DESIGN { 1 0 10303 214 3 1 1 }'));
ENDSEC;

DATA;
#10=MECHANICAL_DESIGN_GEOMETRIC_PRESENTATION_REPRESENTATION('',(#1213,#1214,
#1215,#1216,#1217,#1218,#1219,#1220,#1221,#1222,#1223,#1224,#1225,#1226,
#1227,#1228,#1229,#1230,#1231,#1232,#1233,#1234,#1235,#1236,#1237,#1238,
#1239,#1240,#1241,#1242,#1243,#1244,#1245,#1246,#1247,#1248,#1249,#1250,
#1251,#1252,#1253,#1254,#1255,#1256,#1257,#1258,#1259,#1260,#1261,#1262,
#1263,#1264,#1265,#1266,#1267,#1268,#1269,#1270,#1271,#1272,#1273,#1274,
#1275,#1276,#1277,#1278,#1279,#1280,#1281,#1282),#2171);
#11=ITEM_DEFINED_TRANSFORMATION($,$,#1377,#1463);
#12=ITEM_DEFINED_TRANSFORMATION($,$,#1400,#1464);
#13=(
REPRESENTATION_RELATIONSHIP($,$,#2188,#2187)
REPRESENTATION_RELATIONSHIP_WITH_TRANSFORMATION(#11)
SHAPE_REPRESENTATION_RELATIONSHIP()
);
#14=(
REPRESENTATION_RELATIONSHIP($,$,#2189,#2187)
REPRESENTATION_RELATIONSHIP_WITH_TRANSFORMATION(#12)
SHAPE_REPRESENTATION_RELATIONSHIP()
);
#15=CONTEXT_DEPENDENT_SHAPE_REPRESENTATION(#13,#2185);
#16=CONTEXT_DEPENDENT_SHAPE_REPRESENTATION(#14,#2186);
#17=NEXT_ASSEMBLY_USAGE_OCCURRENCE('_TSM-102-01-SH_body:1',
'_TSM-102-01-SH_body:1','_TSM-102-01-SH_body:1',#2191,#2192,
'_TSM-102-01-SH_body:1');
#18=NEXT_ASSEMBLY_USAGE_OCCURRENCE('_T-1S6-08(-01-2-SH):1',
'_T-1S6-08(-01-2-SH):1','_T-1S6-08(-01-2-SH):1',#2191,#2193,
'_T-1S6-08(-01-2-SH):1');
#19=CIRCLE('',#1402,0.025);
#20=CIRCLE('',#1403,0.025);
#21=CIRCLE('',#1406,0.05);
#22=CIRCLE('',#1407,0.05);
#23=CIRCLE('',#1409,0.025);
#24=CIRCLE('',#1410,0.025);
#25=CIRCLE('',#1416,0.05);
#26=CIRCLE('',#1417,0.05);
#27=CIRCLE('',#1419,0.05);
#28=CIRCLE('',#1420,0.05);
#29=CIRCLE('',#1422,0.025);
#30=CIRCLE('',#1423,0.05);
#31=CIRCLE('',#1438,0.05);
#32=CIRCLE('',#1439,0.025);
#33=CIRCLE('',#1441,0.025);
#34=CIRCLE('',#1446,0.025);
#35=CYLINDRICAL_SURFACE('',#1401,0.025);
#36=CYLINDRICAL_SURFACE('',#1405,0.05);
#37=CYLINDRICAL_SURFACE('',#1408,0.025);
#38=CYLINDRICAL_SURFACE('',#1415,0.05);
#39=CYLINDRICAL_SURFACE('',#1418,0.05);
#40=CYLINDRICAL_SURFACE('',#1456,0.05);
#41=CYLINDRICAL_SURFACE('',#1459,0.025);
#42=CYLINDRICAL_SURFACE('',#1460,0.025);
#43=SHAPE_REPRESENTATION_RELATIONSHIP('SRR','None',#2188,#45);
#44=SHAPE_REPRESENTATION_RELATIONSHIP('SRR','None',#2189,#46);
#45=ADVANCED_BREP_SHAPE_REPRESENTATION('',(#47),#2169);
#46=ADVANCED_BREP_SHAPE_REPRESENTATION('',(#48),#2170);
#47=MANIFOLD_SOLID_BREP('K\X\F6rper1',#1351);
#48=MANIFOLD_SOLID_BREP('K\X\F6rper1',#1352);
#49=FACE_BOUND('',#131,.T.);
#50=FACE_BOUND('',#133,.T.);
#51=FACE_BOUND('',#142,.T.);
#52=FACE_BOUND('',#144,.T.);
#53=FACE_OUTER_BOUND('',#121,.T.);
#54=FACE_OUTER_BOUND('',#122,.T.);
#55=FACE_OUTER_BOUND('',#123,.T.);
#56=FACE_OUTER_BOUND('',#124,.T.);
#57=FACE_OUTER_BOUND('',#125,.T.);
#58=FACE_OUTER_BOUND('',#126,.T.);
#59=FACE_OUTER_BOUND('',#127,.T.);
#60=FACE_OUTER_BOUND('',#128,.T.);
#61=FACE_OUTER_BOUND('',#129,.T.);
#62=FACE_OUTER_BOUND('',#130,.T.);
#63=FACE_OUTER_BOUND('',#132,.T.);
#64=FACE_OUTER_BOUND('',#134,.T.);
#65=FACE_OUTER_BOUND('',#135,.T.);
#66=FACE_OUTER_BOUND('',#136,.T.);
#67=FACE_OUTER_BOUND('',#137,.T.);
#68=FACE_OUTER_BOUND('',#138,.T.);
#69=FACE_OUTER_BOUND('',#139,.T.);
#70=FACE_OUTER_BOUND('',#140,.T.);
#71=FACE_OUTER_BOUND('',#141,.T.);
#72=FACE_OUTER_BOUND('',#143,.T.);
#73=FACE_OUTER_BOUND('',#145,.T.);
#74=FACE_OUTER_BOUND('',#146,.T.);
#75=FACE_OUTER_BOUND('',#147,.T.);
#76=FACE_OUTER_BOUND('',#148,.T.);
#77=FACE_OUTER_BOUND('',#149,.T.);
#78=FACE_OUTER_BOUND('',#150,.T.);
#79=FACE_OUTER_BOUND('',#151,.T.);
#80=FACE_OUTER_BOUND('',#152,.T.);
#81=FACE_OUTER_BOUND('',#153,.T.);
#82=FACE_OUTER_BOUND('',#154,.T.);
#83=FACE_OUTER_BOUND('',#155,.T.);
#84=FACE_OUTER_BOUND('',#156,.T.);
#85=FACE_OUTER_BOUND('',#157,.T.);
#86=FACE_OUTER_BOUND('',#158,.T.);
#87=FACE_OUTER_BOUND('',#159,.T.);
#88=FACE_OUTER_BOUND('',#160,.T.);
#89=FACE_OUTER_BOUND('',#161,.T.);
#90=FACE_OUTER_BOUND('',#162,.T.);
#91=FACE_OUTER_BOUND('',#163,.T.);
#92=FACE_OUTER_BOUND('',#164,.T.);
#93=FACE_OUTER_BOUND('',#165,.T.);
#94=FACE_OUTER_BOUND('',#166,.T.);
#95=FACE_OUTER_BOUND('',#167,.T.);
#96=FACE_OUTER_BOUND('',#168,.T.);
#97=FACE_OUTER_BOUND('',#169,.T.);
#98=FACE_OUTER_BOUND('',#170,.T.);
#99=FACE_OUTER_BOUND('',#171,.T.);
#100=FACE_OUTER_BOUND('',#172,.T.);
#101=FACE_OUTER_BOUND('',#173,.T.);
#102=FACE_OUTER_BOUND('',#174,.T.);
#103=FACE_OUTER_BOUND('',#175,.T.);
#104=FACE_OUTER_BOUND('',#176,.T.);
#105=FACE_OUTER_BOUND('',#177,.T.);
#106=FACE_OUTER_BOUND('',#178,.T.);
#107=FACE_OUTER_BOUND('',#179,.T.);
#108=FACE_OUTER_BOUND('',#180,.T.);
#109=FACE_OUTER_BOUND('',#181,.T.);
#110=FACE_OUTER_BOUND('',#182,.T.);
#111=FACE_OUTER_BOUND('',#183,.T.);
#112=FACE_OUTER_BOUND('',#184,.T.);
#113=FACE_OUTER_BOUND('',#185,.T.);
#114=FACE_OUTER_BOUND('',#186,.T.);
#115=FACE_OUTER_BOUND('',#187,.T.);
#116=FACE_OUTER_BOUND('',#188,.T.);
#117=FACE_OUTER_BOUND('',#189,.T.);
#118=FACE_OUTER_BOUND('',#190,.T.);
#119=FACE_OUTER_BOUND('',#191,.T.);
#120=FACE_OUTER_BOUND('',#192,.T.);
#121=EDGE_LOOP('',(#801,#802,#803,#804));
#122=EDGE_LOOP('',(#805,#806,#807,#808));
#123=EDGE_LOOP('',(#809,#810,#811,#812,#813,#814,#815,#816));
#124=EDGE_LOOP('',(#817,#818,#819,#820,#821,#822,#823,#824,#825,#826,#827,
#828));
#125=EDGE_LOOP('',(#829,#830,#831,#832));
#126=EDGE_LOOP('',(#833,#834,#835,#836));
#127=EDGE_LOOP('',(#837,#838,#839,#840));
#128=EDGE_LOOP('',(#841,#842,#843,#844));
#129=EDGE_LOOP('',(#845,#846,#847,#848));
#130=EDGE_LOOP('',(#849,#850,#851,#852));
#131=EDGE_LOOP('',(#853,#854,#855,#856));
#132=EDGE_LOOP('',(#857,#858,#859,#860));
#133=EDGE_LOOP('',(#861,#862,#863,#864));
#134=EDGE_LOOP('',(#865,#866,#867,#868));
#135=EDGE_LOOP('',(#869,#870,#871,#872));
#136=EDGE_LOOP('',(#873,#874,#875,#876));
#137=EDGE_LOOP('',(#877,#878,#879,#880));
#138=EDGE_LOOP('',(#881,#882,#883,#884));
#139=EDGE_LOOP('',(#885,#886,#887,#888));
#140=EDGE_LOOP('',(#889,#890,#891,#892));
#141=EDGE_LOOP('',(#893,#894,#895,#896));
#142=EDGE_LOOP('',(#897,#898,#899,#900));
#143=EDGE_LOOP('',(#901,#902,#903,#904));
#144=EDGE_LOOP('',(#905,#906,#907,#908));
#145=EDGE_LOOP('',(#909,#910,#911,#912));
#146=EDGE_LOOP('',(#913,#914,#915,#916,#917,#918,#919,#920));
#147=EDGE_LOOP('',(#921,#922,#923,#924));
#148=EDGE_LOOP('',(#925,#926,#927,#928));
#149=EDGE_LOOP('',(#929,#930,#931,#932));
#150=EDGE_LOOP('',(#933,#934,#935,#936));
#151=EDGE_LOOP('',(#937,#938,#939,#940));
#152=EDGE_LOOP('',(#941,#942,#943,#944));
#153=EDGE_LOOP('',(#945,#946,#947,#948));
#154=EDGE_LOOP('',(#949,#950,#951,#952));
#155=EDGE_LOOP('',(#953,#954,#955,#956));
#156=EDGE_LOOP('',(#957,#958,#959,#960));
#157=EDGE_LOOP('',(#961,#962,#963,#964,#965,#966,#967,#968,#969,#970,#971,
#972));
#158=EDGE_LOOP('',(#973,#974,#975,#976));
#159=EDGE_LOOP('',(#977,#978,#979,#980));
#160=EDGE_LOOP('',(#981,#982,#983,#984));
#161=EDGE_LOOP('',(#985,#986,#987,#988));
#162=EDGE_LOOP('',(#989,#990,#991,#992));
#163=EDGE_LOOP('',(#993,#994,#995,#996));
#164=EDGE_LOOP('',(#997,#998,#999,#1000));
#165=EDGE_LOOP('',(#1001,#1002,#1003,#1004));
#166=EDGE_LOOP('',(#1005,#1006,#1007,#1008));
#167=EDGE_LOOP('',(#1009,#1010,#1011,#1012));
#168=EDGE_LOOP('',(#1013,#1014,#1015,#1016));
#169=EDGE_LOOP('',(#1017,#1018,#1019,#1020));
#170=EDGE_LOOP('',(#1021,#1022,#1023,#1024));
#171=EDGE_LOOP('',(#1025,#1026,#1027,#1028,#1029,#1030,#1031,#1032,#1033,
#1034,#1035,#1036));
#172=EDGE_LOOP('',(#1037,#1038,#1039,#1040,#1041,#1042,#1043,#1044,#1045,
#1046,#1047,#1048));
#173=EDGE_LOOP('',(#1049,#1050,#1051,#1052));
#174=EDGE_LOOP('',(#1053,#1054,#1055,#1056));
#175=EDGE_LOOP('',(#1057,#1058,#1059,#1060));
#176=EDGE_LOOP('',(#1061,#1062,#1063,#1064,#1065,#1066,#1067,#1068,#1069,
#1070,#1071,#1072));
#177=EDGE_LOOP('',(#1073,#1074,#1075,#1076));
#178=EDGE_LOOP('',(#1077,#1078,#1079,#1080));
#179=EDGE_LOOP('',(#1081,#1082,#1083,#1084));
#180=EDGE_LOOP('',(#1085,#1086,#1087,#1088));
#181=EDGE_LOOP('',(#1089,#1090,#1091,#1092));
#182=EDGE_LOOP('',(#1093,#1094,#1095,#1096));
#183=EDGE_LOOP('',(#1097,#1098,#1099,#1100));
#184=EDGE_LOOP('',(#1101,#1102,#1103,#1104));
#185=EDGE_LOOP('',(#1105,#1106,#1107,#1108));
#186=EDGE_LOOP('',(#1109,#1110,#1111,#1112));
#187=EDGE_LOOP('',(#1113,#1114,#1115,#1116,#1117,#1118,#1119,#1120,#1121,
#1122,#1123,#1124));
#188=EDGE_LOOP('',(#1125,#1126,#1127,#1128));
#189=EDGE_LOOP('',(#1129,#1130,#1131,#1132));
#190=EDGE_LOOP('',(#1133,#1134,#1135,#1136));
#191=EDGE_LOOP('',(#1137,#1138,#1139,#1140));
#192=EDGE_LOOP('',(#1141,#1142,#1143,#1144,#1145,#1146,#1147,#1148,#1149,
#1150,#1151,#1152));
#193=LINE('',#1808,#353);
#194=LINE('',#1810,#354);
#195=LINE('',#1812,#355);
#196=LINE('',#1813,#356);
#197=LINE('',#1817,#357);
#198=LINE('',#1819,#358);
#199=LINE('',#1821,#359);
#200=LINE('',#1822,#360);
#201=LINE('',#1826,#361);
#202=LINE('',#1828,#362);
#203=LINE('',#1829,#363);
#204=LINE('',#1830,#364);
#205=LINE('',#1832,#365);
#206=LINE('',#1833,#366);
#207=LINE('',#1836,#367);
#208=LINE('',#1838,#368);
#209=LINE('',#1840,#369);
#210=LINE('',#1842,#370);
#211=LINE('',#1843,#371);
#212=LINE('',#1845,#372);
#213=LINE('',#1847,#373);
#214=LINE('',#1848,#374);
#215=LINE('',#1850,#375);
#216=LINE('',#1853,#376);
#217=LINE('',#1855,#377);
#218=LINE('',#1856,#378);
#219=LINE('',#1860,#379);
#220=LINE('',#1862,#380);
#221=LINE('',#1864,#381);
#222=LINE('',#1865,#382);
#223=LINE('',#1868,#383);
#224=LINE('',#1870,#384);
#225=LINE('',#1871,#385);
#226=LINE('',#1875,#386);
#227=LINE('',#1876,#387);
#228=LINE('',#1877,#388);
#229=LINE('',#1879,#389);
#230=LINE('',#1881,#390);
#231=LINE('',#1883,#391);
#232=LINE('',#1884,#392);
#233=LINE('',#1886,#393);
#234=LINE('',#1889,#394);
#235=LINE('',#1891,#395);
#236=LINE('',#1893,#396);
#237=LINE('',#1894,#397);
#238=LINE('',#1897,#398);
#239=LINE('',#1899,#399);
#240=LINE('',#1900,#400);
#241=LINE('',#1903,#401);
#242=LINE('',#1904,#402);
#243=LINE('',#1907,#403);
#244=LINE('',#1908,#404);
#245=LINE('',#1910,#405);
#246=LINE('',#1913,#406);
#247=LINE('',#1914,#407);
#248=LINE('',#1917,#408);
#249=LINE('',#1918,#409);
#250=LINE('',#1920,#410);
#251=LINE('',#1922,#411);
#252=LINE('',#1924,#412);
#253=LINE('',#1933,#413);
#254=LINE('',#1936,#414);
#255=LINE('',#1940,#415);
#256=LINE('',#1941,#416);
#257=LINE('',#1942,#417);
#258=LINE('',#1946,#418);
#259=LINE('',#1950,#419);
#260=LINE('',#1957,#420);
#261=LINE('',#1960,#421);
#262=LINE('',#1964,#422);
#263=LINE('',#1966,#423);
#264=LINE('',#1968,#424);
#265=LINE('',#1969,#425);
#266=LINE('',#1973,#426);
#267=LINE('',#1975,#427);
#268=LINE('',#1977,#428);
#269=LINE('',#1978,#429);
#270=LINE('',#1982,#430);
#271=LINE('',#1984,#431);
#272=LINE('',#1986,#432);
#273=LINE('',#1987,#433);
#274=LINE('',#1991,#434);
#275=LINE('',#1993,#435);
#276=LINE('',#1995,#436);
#277=LINE('',#1996,#437);
#278=LINE('',#2003,#438);
#279=LINE('',#2007,#439);
#280=LINE('',#2011,#440);
#281=LINE('',#2015,#441);
#282=LINE('',#2017,#442);
#283=LINE('',#2018,#443);
#284=LINE('',#2019,#444);
#285=LINE('',#2021,#445);
#286=LINE('',#2025,#446);
#287=LINE('',#2027,#447);
#288=LINE('',#2029,#448);
#289=LINE('',#2030,#449);
#290=LINE('',#2032,#450);
#291=LINE('',#2034,#451);
#292=LINE('',#2036,#452);
#293=LINE('',#2037,#453);
#294=LINE('',#2040,#454);
#295=LINE('',#2041,#455);
#296=LINE('',#2042,#456);
#297=LINE('',#2045,#457);
#298=LINE('',#2046,#458);
#299=LINE('',#2048,#459);
#300=LINE('',#2049,#460);
#301=LINE('',#2054,#461);
#302=LINE('',#2056,#462);
#303=LINE('',#2058,#463);
#304=LINE('',#2059,#464);
#305=LINE('',#2063,#465);
#306=LINE('',#2064,#466);
#307=LINE('',#2065,#467);
#308=LINE('',#2068,#468);
#309=LINE('',#2069,#469);
#310=LINE('',#2072,#470);
#311=LINE('',#2073,#471);
#312=LINE('',#2075,#472);
#313=LINE('',#2079,#473);
#314=LINE('',#2081,#474);
#315=LINE('',#2083,#475);
#316=LINE('',#2084,#476);
#317=LINE('',#2086,#477);
#318=LINE('',#2088,#478);
#319=LINE('',#2092,#479);
#320=LINE('',#2094,#480);
#321=LINE('',#2098,#481);
#322=LINE('',#2099,#482);
#323=LINE('',#2100,#483);
#324=LINE('',#2101,#484);
#325=LINE('',#2105,#485);
#326=LINE('',#2106,#486);
#327=LINE('',#2107,#487);
#328=LINE('',#2111,#488);
#329=LINE('',#2112,#489);
#330=LINE('',#2113,#490);
#331=LINE('',#2115,#491);
#332=LINE('',#2116,#492);
#333=LINE('',#2118,#493);
#334=LINE('',#2119,#494);
#335=LINE('',#2121,#495);
#336=LINE('',#2125,#496);
#337=LINE('',#2126,#497);
#338=LINE('',#2129,#498);
#339=LINE('',#2130,#499);
#340=LINE('',#2132,#500);
#341=LINE('',#2136,#501);
#342=LINE('',#2138,#502);
#343=LINE('',#2139,#503);
#344=LINE('',#2142,#504);
#345=LINE('',#2143,#505);
#346=LINE('',#2146,#506);
#347=LINE('',#2147,#507);
#348=LINE('',#2149,#508);
#349=LINE('',#2152,#509);
#350=LINE('',#2153,#510);
#351=LINE('',#2156,#511);
#352=LINE('',#2159,#512);
#353=VECTOR('',#1471,39.3700787402);
#354=VECTOR('',#1472,39.3700787402);
#355=VECTOR('',#1473,39.3700787402);
#356=VECTOR('',#1474,39.3700787402);
#357=VECTOR('',#1477,39.3700787402);
#358=VECTOR('',#1478,39.3700787402);
#359=VECTOR('',#1479,39.3700787402);
#360=VECTOR('',#1480,39.3700787402);
#361=VECTOR('',#1483,39.3700787402);
#362=VECTOR('',#1484,39.3700787402);
#363=VECTOR('',#1485,39.3700787402);
#364=VECTOR('',#1486,39.3700787402);
#365=VECTOR('',#1487,39.3700787402);
#366=VECTOR('',#1488,39.3700787402);
#367=VECTOR('',#1491,39.3700787402);
#368=VECTOR('',#1492,39.3700787402);
#369=VECTOR('',#1493,39.3700787402);
#370=VECTOR('',#1494,39.3700787402);
#371=VECTOR('',#1495,39.3700787402);
#372=VECTOR('',#1496,39.3700787402);
#373=VECTOR('',#1497,39.3700787402);
#374=VECTOR('',#1498,39.3700787402);
#375=VECTOR('',#1501,39.3700787402);
#376=VECTOR('',#1504,39.3700787402);
#377=VECTOR('',#1505,39.3700787402);
#378=VECTOR('',#1506,39.3700787402);
#379=VECTOR('',#1509,39.3700787402);
#380=VECTOR('',#1510,39.3700787402);
#381=VECTOR('',#1511,39.3700787402);
#382=VECTOR('',#1512,39.3700787402);
#383=VECTOR('',#1515,39.3700787402);
#384=VECTOR('',#1516,39.3700787402);
#385=VECTOR('',#1517,39.3700787402);
#386=VECTOR('',#1520,39.3700787402);
#387=VECTOR('',#1521,39.3700787402);
#388=VECTOR('',#1522,39.3700787402);
#389=VECTOR('',#1525,39.3700787402);
#390=VECTOR('',#1526,39.3700787402);
#391=VECTOR('',#1527,39.3700787402);
#392=VECTOR('',#1528,39.3700787402);
#393=VECTOR('',#1531,39.3700787402);
#394=VECTOR('',#1532,39.3700787402);
#395=VECTOR('',#1533,39.3700787402);
#396=VECTOR('',#1534,39.3700787402);
#397=VECTOR('',#1535,39.3700787402);
#398=VECTOR('',#1538,39.3700787402);
#399=VECTOR('',#1539,39.3700787402);
#400=VECTOR('',#1540,39.3700787402);
#401=VECTOR('',#1543,39.3700787402);
#402=VECTOR('',#1544,39.3700787402);
#403=VECTOR('',#1547,39.3700787402);
#404=VECTOR('',#1548,39.3700787402);
#405=VECTOR('',#1551,39.3700787402);
#406=VECTOR('',#1554,39.3700787402);
#407=VECTOR('',#1555,39.3700787402);
#408=VECTOR('',#1558,39.3700787402);
#409=VECTOR('',#1559,39.3700787402);
#410=VECTOR('',#1562,39.3700787402);
#411=VECTOR('',#1565,39.3700787402);
#412=VECTOR('',#1568,39.3700787402);
#413=VECTOR('',#1579,39.3700787402);
#414=VECTOR('',#1582,39.3700787402);
#415=VECTOR('',#1585,39.3700787402);
#416=VECTOR('',#1586,39.3700787402);
#417=VECTOR('',#1587,39.3700787402);
#418=VECTOR('',#1590,39.3700787402);
#419=VECTOR('',#1593,39.3700787402);
#420=VECTOR('',#1600,39.3700787402);
#421=VECTOR('',#1603,39.3700787402);
#422=VECTOR('',#1606,39.3700787402);
#423=VECTOR('',#1607,39.3700787402);
#424=VECTOR('',#1608,39.3700787402);
#425=VECTOR('',#1609,39.3700787402);
#426=VECTOR('',#1612,39.3700787402);
#427=VECTOR('',#1613,39.3700787402);
#428=VECTOR('',#1614,39.3700787402);
#429=VECTOR('',#1615,39.3700787402);
#430=VECTOR('',#1618,39.3700787402);
#431=VECTOR('',#1619,39.3700787402);
#432=VECTOR('',#1620,39.3700787402);
#433=VECTOR('',#1621,39.3700787402);
#434=VECTOR('',#1624,39.3700787402);
#435=VECTOR('',#1625,39.3700787402);
#436=VECTOR('',#1626,39.3700787402);
#437=VECTOR('',#1627,39.3700787402);
#438=VECTOR('',#1636,39.3700787402);
#439=VECTOR('',#1643,39.3700787402);
#440=VECTOR('',#1646,39.3700787402);
#441=VECTOR('',#1649,39.3700787402);
#442=VECTOR('',#1650,39.3700787402);
#443=VECTOR('',#1651,39.3700787402);
#444=VECTOR('',#1652,39.3700787402);
#445=VECTOR('',#1655,39.3700787402);
#446=VECTOR('',#1658,39.3700787402);
#447=VECTOR('',#1659,39.3700787402);
#448=VECTOR('',#1660,39.3700787402);
#449=VECTOR('',#1661,39.3700787402);
#450=VECTOR('',#1664,39.3700787402);
#451=VECTOR('',#1665,39.3700787402);
#452=VECTOR('',#1666,39.3700787402);
#453=VECTOR('',#1667,39.3700787402);
#454=VECTOR('',#1670,39.3700787402);
#455=VECTOR('',#1671,39.3700787402);
#456=VECTOR('',#1672,39.3700787402);
#457=VECTOR('',#1675,39.3700787402);
#458=VECTOR('',#1676,39.3700787402);
#459=VECTOR('',#1679,39.3700787402);
#460=VECTOR('',#1680,39.3700787402);
#461=VECTOR('',#1685,39.3700787402);
#462=VECTOR('',#1686,39.3700787402);
#463=VECTOR('',#1687,39.3700787402);
#464=VECTOR('',#1688,39.3700787402);
#465=VECTOR('',#1691,39.3700787402);
#466=VECTOR('',#1692,39.3700787402);
#467=VECTOR('',#1693,39.3700787402);
#468=VECTOR('',#1696,39.3700787402);
#469=VECTOR('',#1697,39.3700787402);
#470=VECTOR('',#1700,39.3700787402);
#471=VECTOR('',#1701,39.3700787402);
#472=VECTOR('',#1704,39.3700787402);
#473=VECTOR('',#1707,39.3700787402);
#474=VECTOR('',#1708,39.3700787402);
#475=VECTOR('',#1709,39.3700787402);
#476=VECTOR('',#1710,39.3700787402);
#477=VECTOR('',#1713,39.3700787402);
#478=VECTOR('',#1714,39.3700787402);
#479=VECTOR('',#1717,39.3700787402);
#480=VECTOR('',#1720,39.3700787402);
#481=VECTOR('',#1725,39.3700787402);
#482=VECTOR('',#1726,39.3700787402);
#483=VECTOR('',#1727,39.3700787402);
#484=VECTOR('',#1728,39.3700787402);
#485=VECTOR('',#1731,39.3700787402);
#486=VECTOR('',#1732,39.3700787402);
#487=VECTOR('',#1733,39.3700787402);
#488=VECTOR('',#1736,39.3700787402);
#489=VECTOR('',#1737,39.3700787402);
#490=VECTOR('',#1738,39.3700787402);
#491=VECTOR('',#1741,39.3700787402);
#492=VECTOR('',#1742,39.3700787402);
#493=VECTOR('',#1745,39.3700787402);
#494=VECTOR('',#1746,39.3700787402);
#495=VECTOR('',#1747,39.3700787402);
#496=VECTOR('',#1752,39.3700787402);
#497=VECTOR('',#1753,39.3700787402);
#498=VECTOR('',#1756,39.3700787402);
#499=VECTOR('',#1757,39.3700787402);
#500=VECTOR('',#1760,39.3700787402);
#501=VECTOR('',#1765,39.3700787402);
#502=VECTOR('',#1766,39.3700787402);
#503=VECTOR('',#1767,39.3700787402);
#504=VECTOR('',#1770,39.3700787402);
#505=VECTOR('',#1771,39.3700787402);
#506=VECTOR('',#1774,39.3700787402);
#507=VECTOR('',#1775,39.3700787402);
#508=VECTOR('',#1778,39.3700787402);
#509=VECTOR('',#1783,39.3700787402);
#510=VECTOR('',#1784,39.3700787402);
#511=VECTOR('',#1789,39.3700787402);
#512=VECTOR('',#1794,39.3700787402);
#513=VERTEX_POINT('',#1806);
#514=VERTEX_POINT('',#1807);
#515=VERTEX_POINT('',#1809);
#516=VERTEX_POINT('',#1811);
#517=VERTEX_POINT('',#1815);
#518=VERTEX_POINT('',#1816);
#519=VERTEX_POINT('',#1818);
#520=VERTEX_POINT('',#1820);
#521=VERTEX_POINT('',#1824);
#522=VERTEX_POINT('',#1825);
#523=VERTEX_POINT('',#1827);
#524=VERTEX_POINT('',#1831);
#525=VERTEX_POINT('',#1835);
#526=VERTEX_POINT('',#1837);
#527=VERTEX_POINT('',#1839);
#528=VERTEX_POINT('',#1841);
#529=VERTEX_POINT('',#1844);
#530=VERTEX_POINT('',#1846);
#531=VERTEX_POINT('',#1852);
#532=VERTEX_POINT('',#1854);
#533=VERTEX_POINT('',#1858);
#534=VERTEX_POINT('',#1859);
#535=VERTEX_POINT('',#1861);
#536=VERTEX_POINT('',#1863);
#537=VERTEX_POINT('',#1867);
#538=VERTEX_POINT('',#1869);
#539=VERTEX_POINT('',#1873);
#540=VERTEX_POINT('',#1874);
#541=VERTEX_POINT('',#1880);
#542=VERTEX_POINT('',#1882);
#543=VERTEX_POINT('',#1887);
#544=VERTEX_POINT('',#1888);
#545=VERTEX_POINT('',#1890);
#546=VERTEX_POINT('',#1892);
#547=VERTEX_POINT('',#1896);
#548=VERTEX_POINT('',#1898);
#549=VERTEX_POINT('',#1902);
#550=VERTEX_POINT('',#1906);
#551=VERTEX_POINT('',#1912);
#552=VERTEX_POINT('',#1916);
#553=VERTEX_POINT('',#1929);
#554=VERTEX_POINT('',#1930);
#555=VERTEX_POINT('',#1932);
#556=VERTEX_POINT('',#1934);
#557=VERTEX_POINT('',#1938);
#558=VERTEX_POINT('',#1939);
#559=VERTEX_POINT('',#1944);
#560=VERTEX_POINT('',#1945);
#561=VERTEX_POINT('',#1947);
#562=VERTEX_POINT('',#1949);
#563=VERTEX_POINT('',#1953);
#564=VERTEX_POINT('',#1954);
#565=VERTEX_POINT('',#1956);
#566=VERTEX_POINT('',#1958);
#567=VERTEX_POINT('',#1962);
#568=VERTEX_POINT('',#1963);
#569=VERTEX_POINT('',#1965);
#570=VERTEX_POINT('',#1967);
#571=VERTEX_POINT('',#1971);
#572=VERTEX_POINT('',#1972);
#573=VERTEX_POINT('',#1974);
#574=VERTEX_POINT('',#1976);
#575=VERTEX_POINT('',#1980);
#576=VERTEX_POINT('',#1981);
#577=VERTEX_POINT('',#1983);
#578=VERTEX_POINT('',#1985);
#579=VERTEX_POINT('',#1989);
#580=VERTEX_POINT('',#1990);
#581=VERTEX_POINT('',#1992);
#582=VERTEX_POINT('',#1994);
#583=VERTEX_POINT('',#2001);
#584=VERTEX_POINT('',#2002);
#585=VERTEX_POINT('',#2008);
#586=VERTEX_POINT('',#2010);
#587=VERTEX_POINT('',#2012);
#588=VERTEX_POINT('',#2014);
#589=VERTEX_POINT('',#2016);
#590=VERTEX_POINT('',#2023);
#591=VERTEX_POINT('',#2024);
#592=VERTEX_POINT('',#2026);
#593=VERTEX_POINT('',#2028);
#594=VERTEX_POINT('',#2033);
#595=VERTEX_POINT('',#2035);
#596=VERTEX_POINT('',#2039);
#597=VERTEX_POINT('',#2044);
#598=VERTEX_POINT('',#2052);
#599=VERTEX_POINT('',#2053);
#600=VERTEX_POINT('',#2055);
#601=VERTEX_POINT('',#2057);
#602=VERTEX_POINT('',#2061);
#603=VERTEX_POINT('',#2062);
#604=VERTEX_POINT('',#2067);
#605=VERTEX_POINT('',#2071);
#606=VERTEX_POINT('',#2077);
#607=VERTEX_POINT('',#2078);
#608=VERTEX_POINT('',#2080);
#609=VERTEX_POINT('',#2082);
#610=VERTEX_POINT('',#2087);
#611=VERTEX_POINT('',#2089);
#612=VERTEX_POINT('',#2091);
#613=VERTEX_POINT('',#2096);
#614=VERTEX_POINT('',#2103);
#615=VERTEX_POINT('',#2104);
#616=VERTEX_POINT('',#2109);
#617=VERTEX_POINT('',#2110);
#618=VERTEX_POINT('',#2120);
#619=VERTEX_POINT('',#2124);
#620=VERTEX_POINT('',#2128);
#621=VERTEX_POINT('',#2135);
#622=VERTEX_POINT('',#2137);
#623=VERTEX_POINT('',#2141);
#624=VERTEX_POINT('',#2145);
#625=EDGE_CURVE('',#513,#514,#193,.T.);
#626=EDGE_CURVE('',#515,#514,#194,.T.);
#627=EDGE_CURVE('',#516,#515,#195,.T.);
#628=EDGE_CURVE('',#516,#513,#196,.T.);
#629=EDGE_CURVE('',#517,#518,#197,.T.);
#630=EDGE_CURVE('',#519,#518,#198,.T.);
#631=EDGE_CURVE('',#520,#519,#199,.T.);
#632=EDGE_CURVE('',#520,#517,#200,.T.);
#633=EDGE_CURVE('',#521,#522,#201,.T.);
#634=EDGE_CURVE('',#523,#522,#202,.T.);
#635=EDGE_CURVE('',#523,#513,#203,.T.);
#636=EDGE_CURVE('',#519,#516,#204,.T.);
#637=EDGE_CURVE('',#518,#524,#205,.T.);
#638=EDGE_CURVE('',#524,#521,#206,.T.);
#639=EDGE_CURVE('',#525,#517,#207,.T.);
#640=EDGE_CURVE('',#526,#525,#208,.T.);
#641=EDGE_CURVE('',#526,#527,#209,.T.);
#642=EDGE_CURVE('',#527,#528,#210,.T.);
#643=EDGE_CURVE('',#514,#528,#211,.T.);
#644=EDGE_CURVE('',#523,#529,#212,.T.);
#645=EDGE_CURVE('',#530,#529,#213,.T.);
#646=EDGE_CURVE('',#524,#530,#214,.T.);
#647=EDGE_CURVE('',#520,#515,#215,.T.);
#648=EDGE_CURVE('',#531,#527,#216,.T.);
#649=EDGE_CURVE('',#532,#526,#217,.T.);
#650=EDGE_CURVE('',#532,#531,#218,.T.);
#651=EDGE_CURVE('',#533,#534,#219,.T.);
#652=EDGE_CURVE('',#535,#533,#220,.T.);
#653=EDGE_CURVE('',#535,#536,#221,.T.);
#654=EDGE_CURVE('',#536,#534,#222,.T.);
#655=EDGE_CURVE('',#537,#521,#223,.T.);
#656=EDGE_CURVE('',#537,#538,#224,.T.);
#657=EDGE_CURVE('',#538,#522,#225,.T.);
#658=EDGE_CURVE('',#539,#540,#226,.T.);
#659=EDGE_CURVE('',#539,#531,#227,.T.);
#660=EDGE_CURVE('',#540,#532,#228,.T.);
#661=EDGE_CURVE('',#529,#538,#229,.T.);
#662=EDGE_CURVE('',#534,#541,#230,.T.);
#663=EDGE_CURVE('',#541,#542,#231,.T.);
#664=EDGE_CURVE('',#542,#533,#232,.T.);
#665=EDGE_CURVE('',#528,#539,#233,.T.);
#666=EDGE_CURVE('',#543,#544,#234,.T.);
#667=EDGE_CURVE('',#544,#545,#235,.T.);
#668=EDGE_CURVE('',#545,#546,#236,.T.);
#669=EDGE_CURVE('',#546,#543,#237,.T.);
#670=EDGE_CURVE('',#547,#543,#238,.T.);
#671=EDGE_CURVE('',#547,#548,#239,.T.);
#672=EDGE_CURVE('',#548,#544,#240,.T.);
#673=EDGE_CURVE('',#549,#546,#241,.T.);
#674=EDGE_CURVE('',#549,#547,#242,.T.);
#675=EDGE_CURVE('',#550,#545,#243,.T.);
#676=EDGE_CURVE('',#550,#549,#244,.T.);
#677=EDGE_CURVE('',#548,#550,#245,.T.);
#678=EDGE_CURVE('',#551,#542,#246,.T.);
#679=EDGE_CURVE('',#551,#535,#247,.T.);
#680=EDGE_CURVE('',#552,#541,#248,.T.);
#681=EDGE_CURVE('',#552,#551,#249,.T.);
#682=EDGE_CURVE('',#536,#552,#250,.T.);
#683=EDGE_CURVE('',#530,#537,#251,.T.);
#684=EDGE_CURVE('',#540,#525,#252,.T.);
#685=EDGE_CURVE('',#553,#554,#19,.T.);
#686=EDGE_CURVE('',#553,#555,#253,.T.);
#687=EDGE_CURVE('',#556,#555,#20,.T.);
#688=EDGE_CURVE('',#554,#556,#254,.T.);
#689=EDGE_CURVE('',#557,#558,#255,.T.);
#690=EDGE_CURVE('',#557,#554,#256,.T.);
#691=EDGE_CURVE('',#556,#558,#257,.T.);
#692=EDGE_CURVE('',#559,#560,#258,.T.);
#693=EDGE_CURVE('',#559,#561,#21,.T.);
#694=EDGE_CURVE('',#561,#562,#259,.T.);
#695=EDGE_CURVE('',#562,#560,#22,.T.);
#696=EDGE_CURVE('',#563,#564,#23,.T.);
#697=EDGE_CURVE('',#565,#563,#260,.T.);
#698=EDGE_CURVE('',#565,#566,#24,.T.);
#699=EDGE_CURVE('',#566,#564,#261,.T.);
#700=EDGE_CURVE('',#567,#568,#262,.T.);
#701=EDGE_CURVE('',#569,#567,#263,.T.);
#702=EDGE_CURVE('',#569,#570,#264,.T.);
#703=EDGE_CURVE('',#570,#568,#265,.T.);
#704=EDGE_CURVE('',#571,#572,#266,.T.);
#705=EDGE_CURVE('',#571,#573,#267,.T.);
#706=EDGE_CURVE('',#573,#574,#268,.T.);
#707=EDGE_CURVE('',#574,#572,#269,.T.);
#708=EDGE_CURVE('',#575,#576,#270,.T.);
#709=EDGE_CURVE('',#577,#576,#271,.T.);
#710=EDGE_CURVE('',#578,#577,#272,.T.);
#711=EDGE_CURVE('',#575,#578,#273,.T.);
#712=EDGE_CURVE('',#579,#580,#274,.T.);
#713=EDGE_CURVE('',#580,#581,#275,.T.);
#714=EDGE_CURVE('',#582,#581,#276,.T.);
#715=EDGE_CURVE('',#579,#582,#277,.T.);
#716=EDGE_CURVE('',#569,#557,#25,.T.);
#717=EDGE_CURVE('',#558,#570,#26,.T.);
#718=EDGE_CURVE('',#583,#584,#278,.T.);
#719=EDGE_CURVE('',#584,#576,#27,.T.);
#720=EDGE_CURVE('',#583,#575,#28,.T.);
#721=EDGE_CURVE('',#578,#579,#279,.T.);
#722=EDGE_CURVE('',#585,#582,#29,.T.);
#723=EDGE_CURVE('',#585,#586,#280,.T.);
#724=EDGE_CURVE('',#586,#587,#30,.T.);
#725=EDGE_CURVE('',#587,#588,#281,.T.);
#726=EDGE_CURVE('',#588,#589,#282,.T.);
#727=EDGE_CURVE('',#589,#566,#283,.T.);
#728=EDGE_CURVE('',#565,#583,#284,.T.);
#729=EDGE_CURVE('',#563,#584,#285,.T.);
#730=EDGE_CURVE('',#590,#591,#286,.F.);
#731=EDGE_CURVE('',#591,#592,#287,.F.);
#732=EDGE_CURVE('',#592,#593,#288,.F.);
#733=EDGE_CURVE('',#593,#590,#289,.F.);
#734=EDGE_CURVE('',#568,#574,#290,.T.);
#735=EDGE_CURVE('',#594,#574,#291,.T.);
#736=EDGE_CURVE('',#594,#595,#292,.T.);
#737=EDGE_CURVE('',#595,#568,#293,.T.);
#738=EDGE_CURVE('',#588,#596,#294,.T.);
#739=EDGE_CURVE('',#590,#596,#295,.T.);
#740=EDGE_CURVE('',#593,#588,#296,.T.);
#741=EDGE_CURVE('',#596,#597,#297,.T.);
#742=EDGE_CURVE('',#591,#597,#298,.T.);
#743=EDGE_CURVE('',#589,#597,#299,.T.);
#744=EDGE_CURVE('',#592,#589,#300,.T.);
#745=EDGE_CURVE('',#598,#599,#301,.F.);
#746=EDGE_CURVE('',#599,#600,#302,.F.);
#747=EDGE_CURVE('',#600,#601,#303,.F.);
#748=EDGE_CURVE('',#601,#598,#304,.F.);
#749=EDGE_CURVE('',#602,#603,#305,.T.);
#750=EDGE_CURVE('',#599,#603,#306,.T.);
#751=EDGE_CURVE('',#598,#602,#307,.T.);
#752=EDGE_CURVE('',#604,#603,#308,.T.);
#753=EDGE_CURVE('',#600,#604,#309,.T.);
#754=EDGE_CURVE('',#604,#605,#310,.T.);
#755=EDGE_CURVE('',#601,#605,#311,.T.);
#756=EDGE_CURVE('',#605,#602,#312,.T.);
#757=EDGE_CURVE('',#606,#607,#313,.T.);
#758=EDGE_CURVE('',#608,#607,#314,.T.);
#759=EDGE_CURVE('',#609,#608,#315,.T.);
#760=EDGE_CURVE('',#606,#609,#316,.T.);
#761=EDGE_CURVE('',#607,#564,#317,.T.);
#762=EDGE_CURVE('',#610,#606,#318,.T.);
#763=EDGE_CURVE('',#611,#610,#31,.T.);
#764=EDGE_CURVE('',#612,#611,#319,.T.);
#765=EDGE_CURVE('',#612,#581,#32,.T.);
#766=EDGE_CURVE('',#577,#580,#320,.T.);
#767=EDGE_CURVE('',#571,#613,#33,.T.);
#768=EDGE_CURVE('',#561,#613,#321,.T.);
#769=EDGE_CURVE('',#609,#559,#322,.T.);
#770=EDGE_CURVE('',#553,#608,#323,.T.);
#771=EDGE_CURVE('',#573,#567,#324,.T.);
#772=EDGE_CURVE('',#614,#615,#325,.T.);
#773=EDGE_CURVE('',#597,#615,#326,.T.);
#774=EDGE_CURVE('',#614,#596,#327,.T.);
#775=EDGE_CURVE('',#616,#617,#328,.T.);
#776=EDGE_CURVE('',#615,#617,#329,.T.);
#777=EDGE_CURVE('',#616,#614,#330,.T.);
#778=EDGE_CURVE('',#617,#604,#331,.T.);
#779=EDGE_CURVE('',#605,#616,#332,.T.);
#780=EDGE_CURVE('',#603,#555,#333,.T.);
#781=EDGE_CURVE('',#560,#602,#334,.T.);
#782=EDGE_CURVE('',#618,#562,#335,.T.);
#783=EDGE_CURVE('',#618,#572,#34,.T.);
#784=EDGE_CURVE('',#619,#573,#336,.T.);
#785=EDGE_CURVE('',#619,#594,#337,.T.);
#786=EDGE_CURVE('',#620,#567,#338,.T.);
#787=EDGE_CURVE('',#620,#619,#339,.T.);
#788=EDGE_CURVE('',#595,#620,#340,.T.);
#789=EDGE_CURVE('',#621,#579,#341,.T.);
#790=EDGE_CURVE('',#621,#622,#342,.T.);
#791=EDGE_CURVE('',#622,#580,#343,.T.);
#792=EDGE_CURVE('',#623,#578,#344,.T.);
#793=EDGE_CURVE('',#623,#621,#345,.T.);
#794=EDGE_CURVE('',#624,#577,#346,.T.);
#795=EDGE_CURVE('',#624,#623,#347,.T.);
#796=EDGE_CURVE('',#622,#624,#348,.T.);
#797=EDGE_CURVE('',#586,#611,#349,.T.);
#798=EDGE_CURVE('',#587,#610,#350,.T.);
#799=EDGE_CURVE('',#585,#612,#351,.T.);
#800=EDGE_CURVE('',#613,#618,#352,.T.);
#801=ORIENTED_EDGE('',*,*,#625,.T.);
#802=ORIENTED_EDGE('',*,*,#626,.F.);
#803=ORIENTED_EDGE('',*,*,#627,.F.);
#804=ORIENTED_EDGE('',*,*,#628,.T.);
#805=ORIENTED_EDGE('',*,*,#629,.T.);
#806=ORIENTED_EDGE('',*,*,#630,.F.);
#807=ORIENTED_EDGE('',*,*,#631,.F.);
#808=ORIENTED_EDGE('',*,*,#632,.T.);
#809=ORIENTED_EDGE('',*,*,#633,.T.);
#810=ORIENTED_EDGE('',*,*,#634,.F.);
#811=ORIENTED_EDGE('',*,*,#635,.T.);
#812=ORIENTED_EDGE('',*,*,#628,.F.);
#813=ORIENTED_EDGE('',*,*,#636,.F.);
#814=ORIENTED_EDGE('',*,*,#630,.T.);
#815=ORIENTED_EDGE('',*,*,#637,.T.);
#816=ORIENTED_EDGE('',*,*,#638,.T.);
#817=ORIENTED_EDGE('',*,*,#639,.F.);
#818=ORIENTED_EDGE('',*,*,#640,.F.);
#819=ORIENTED_EDGE('',*,*,#641,.T.);
#820=ORIENTED_EDGE('',*,*,#642,.T.);
#821=ORIENTED_EDGE('',*,*,#643,.F.);
#822=ORIENTED_EDGE('',*,*,#625,.F.);
#823=ORIENTED_EDGE('',*,*,#635,.F.);
#824=ORIENTED_EDGE('',*,*,#644,.T.);
#825=ORIENTED_EDGE('',*,*,#645,.F.);
#826=ORIENTED_EDGE('',*,*,#646,.F.);
#827=ORIENTED_EDGE('',*,*,#637,.F.);
#828=ORIENTED_EDGE('',*,*,#629,.F.);
#829=ORIENTED_EDGE('',*,*,#647,.F.);
#830=ORIENTED_EDGE('',*,*,#631,.T.);
#831=ORIENTED_EDGE('',*,*,#636,.T.);
#832=ORIENTED_EDGE('',*,*,#627,.T.);
#833=ORIENTED_EDGE('',*,*,#648,.T.);
#834=ORIENTED_EDGE('',*,*,#641,.F.);
#835=ORIENTED_EDGE('',*,*,#649,.F.);
#836=ORIENTED_EDGE('',*,*,#650,.T.);
#837=ORIENTED_EDGE('',*,*,#651,.F.);
#838=ORIENTED_EDGE('',*,*,#652,.F.);
#839=ORIENTED_EDGE('',*,*,#653,.T.);
#840=ORIENTED_EDGE('',*,*,#654,.T.);
#841=ORIENTED_EDGE('',*,*,#633,.F.);
#842=ORIENTED_EDGE('',*,*,#655,.F.);
#843=ORIENTED_EDGE('',*,*,#656,.T.);
#844=ORIENTED_EDGE('',*,*,#657,.T.);
#845=ORIENTED_EDGE('',*,*,#658,.F.);
#846=ORIENTED_EDGE('',*,*,#659,.T.);
#847=ORIENTED_EDGE('',*,*,#650,.F.);
#848=ORIENTED_EDGE('',*,*,#660,.F.);
#849=ORIENTED_EDGE('',*,*,#644,.F.);
#850=ORIENTED_EDGE('',*,*,#634,.T.);
#851=ORIENTED_EDGE('',*,*,#657,.F.);
#852=ORIENTED_EDGE('',*,*,#661,.F.);
#853=ORIENTED_EDGE('',*,*,#651,.T.);
#854=ORIENTED_EDGE('',*,*,#662,.T.);
#855=ORIENTED_EDGE('',*,*,#663,.T.);
#856=ORIENTED_EDGE('',*,*,#664,.T.);
#857=ORIENTED_EDGE('',*,*,#665,.F.);
#858=ORIENTED_EDGE('',*,*,#642,.F.);
#859=ORIENTED_EDGE('',*,*,#648,.F.);
#860=ORIENTED_EDGE('',*,*,#659,.F.);
#861=ORIENTED_EDGE('',*,*,#666,.T.);
#862=ORIENTED_EDGE('',*,*,#667,.T.);
#863=ORIENTED_EDGE('',*,*,#668,.T.);
#864=ORIENTED_EDGE('',*,*,#669,.T.);
#865=ORIENTED_EDGE('',*,*,#666,.F.);
#866=ORIENTED_EDGE('',*,*,#670,.F.);
#867=ORIENTED_EDGE('',*,*,#671,.T.);
#868=ORIENTED_EDGE('',*,*,#672,.T.);
#869=ORIENTED_EDGE('',*,*,#669,.F.);
#870=ORIENTED_EDGE('',*,*,#673,.F.);
#871=ORIENTED_EDGE('',*,*,#674,.T.);
#872=ORIENTED_EDGE('',*,*,#670,.T.);
#873=ORIENTED_EDGE('',*,*,#668,.F.);
#874=ORIENTED_EDGE('',*,*,#675,.F.);
#875=ORIENTED_EDGE('',*,*,#676,.T.);
#876=ORIENTED_EDGE('',*,*,#673,.T.);
#877=ORIENTED_EDGE('',*,*,#667,.F.);
#878=ORIENTED_EDGE('',*,*,#672,.F.);
#879=ORIENTED_EDGE('',*,*,#677,.T.);
#880=ORIENTED_EDGE('',*,*,#675,.T.);
#881=ORIENTED_EDGE('',*,*,#664,.F.);
#882=ORIENTED_EDGE('',*,*,#678,.F.);
#883=ORIENTED_EDGE('',*,*,#679,.T.);
#884=ORIENTED_EDGE('',*,*,#652,.T.);
#885=ORIENTED_EDGE('',*,*,#663,.F.);
#886=ORIENTED_EDGE('',*,*,#680,.F.);
#887=ORIENTED_EDGE('',*,*,#681,.T.);
#888=ORIENTED_EDGE('',*,*,#678,.T.);
#889=ORIENTED_EDGE('',*,*,#662,.F.);
#890=ORIENTED_EDGE('',*,*,#654,.F.);
#891=ORIENTED_EDGE('',*,*,#682,.T.);
#892=ORIENTED_EDGE('',*,*,#680,.T.);
#893=ORIENTED_EDGE('',*,*,#638,.F.);
#894=ORIENTED_EDGE('',*,*,#646,.T.);
#895=ORIENTED_EDGE('',*,*,#683,.T.);
#896=ORIENTED_EDGE('',*,*,#655,.T.);
#897=ORIENTED_EDGE('',*,*,#653,.F.);
#898=ORIENTED_EDGE('',*,*,#679,.F.);
#899=ORIENTED_EDGE('',*,*,#681,.F.);
#900=ORIENTED_EDGE('',*,*,#682,.F.);
#901=ORIENTED_EDGE('',*,*,#640,.T.);
#902=ORIENTED_EDGE('',*,*,#684,.F.);
#903=ORIENTED_EDGE('',*,*,#660,.T.);
#904=ORIENTED_EDGE('',*,*,#649,.T.);
#905=ORIENTED_EDGE('',*,*,#671,.F.);
#906=ORIENTED_EDGE('',*,*,#674,.F.);
#907=ORIENTED_EDGE('',*,*,#676,.F.);
#908=ORIENTED_EDGE('',*,*,#677,.F.);
#909=ORIENTED_EDGE('',*,*,#661,.T.);
#910=ORIENTED_EDGE('',*,*,#656,.F.);
#911=ORIENTED_EDGE('',*,*,#683,.F.);
#912=ORIENTED_EDGE('',*,*,#645,.T.);
#913=ORIENTED_EDGE('',*,*,#684,.T.);
#914=ORIENTED_EDGE('',*,*,#639,.T.);
#915=ORIENTED_EDGE('',*,*,#632,.F.);
#916=ORIENTED_EDGE('',*,*,#647,.T.);
#917=ORIENTED_EDGE('',*,*,#626,.T.);
#918=ORIENTED_EDGE('',*,*,#643,.T.);
#919=ORIENTED_EDGE('',*,*,#665,.T.);
#920=ORIENTED_EDGE('',*,*,#658,.T.);
#921=ORIENTED_EDGE('',*,*,#685,.F.);
#922=ORIENTED_EDGE('',*,*,#686,.T.);
#923=ORIENTED_EDGE('',*,*,#687,.F.);
#924=ORIENTED_EDGE('',*,*,#688,.F.);
#925=ORIENTED_EDGE('',*,*,#689,.F.);
#926=ORIENTED_EDGE('',*,*,#690,.T.);
#927=ORIENTED_EDGE('',*,*,#688,.T.);
#928=ORIENTED_EDGE('',*,*,#691,.T.);
#929=ORIENTED_EDGE('',*,*,#692,.F.);
#930=ORIENTED_EDGE('',*,*,#693,.T.);
#931=ORIENTED_EDGE('',*,*,#694,.T.);
#932=ORIENTED_EDGE('',*,*,#695,.T.);
#933=ORIENTED_EDGE('',*,*,#696,.F.);
#934=ORIENTED_EDGE('',*,*,#697,.F.);
#935=ORIENTED_EDGE('',*,*,#698,.T.);
#936=ORIENTED_EDGE('',*,*,#699,.T.);
#937=ORIENTED_EDGE('',*,*,#700,.F.);
#938=ORIENTED_EDGE('',*,*,#701,.F.);
#939=ORIENTED_EDGE('',*,*,#702,.T.);
#940=ORIENTED_EDGE('',*,*,#703,.T.);
#941=ORIENTED_EDGE('',*,*,#704,.F.);
#942=ORIENTED_EDGE('',*,*,#705,.T.);
#943=ORIENTED_EDGE('',*,*,#706,.T.);
#944=ORIENTED_EDGE('',*,*,#707,.T.);
#945=ORIENTED_EDGE('',*,*,#708,.T.);
#946=ORIENTED_EDGE('',*,*,#709,.F.);
#947=ORIENTED_EDGE('',*,*,#710,.F.);
#948=ORIENTED_EDGE('',*,*,#711,.F.);
#949=ORIENTED_EDGE('',*,*,#712,.T.);
#950=ORIENTED_EDGE('',*,*,#713,.T.);
#951=ORIENTED_EDGE('',*,*,#714,.F.);
#952=ORIENTED_EDGE('',*,*,#715,.F.);
#953=ORIENTED_EDGE('',*,*,#702,.F.);
#954=ORIENTED_EDGE('',*,*,#716,.T.);
#955=ORIENTED_EDGE('',*,*,#689,.T.);
#956=ORIENTED_EDGE('',*,*,#717,.T.);
#957=ORIENTED_EDGE('',*,*,#718,.T.);
#958=ORIENTED_EDGE('',*,*,#719,.T.);
#959=ORIENTED_EDGE('',*,*,#708,.F.);
#960=ORIENTED_EDGE('',*,*,#720,.F.);
#961=ORIENTED_EDGE('',*,*,#711,.T.);
#962=ORIENTED_EDGE('',*,*,#721,.T.);
#963=ORIENTED_EDGE('',*,*,#715,.T.);
#964=ORIENTED_EDGE('',*,*,#722,.F.);
#965=ORIENTED_EDGE('',*,*,#723,.T.);
#966=ORIENTED_EDGE('',*,*,#724,.T.);
#967=ORIENTED_EDGE('',*,*,#725,.T.);
#968=ORIENTED_EDGE('',*,*,#726,.T.);
#969=ORIENTED_EDGE('',*,*,#727,.T.);
#970=ORIENTED_EDGE('',*,*,#698,.F.);
#971=ORIENTED_EDGE('',*,*,#728,.T.);
#972=ORIENTED_EDGE('',*,*,#720,.T.);
#973=ORIENTED_EDGE('',*,*,#697,.T.);
#974=ORIENTED_EDGE('',*,*,#729,.T.);
#975=ORIENTED_EDGE('',*,*,#718,.F.);
#976=ORIENTED_EDGE('',*,*,#728,.F.);
#977=ORIENTED_EDGE('',*,*,#730,.T.);
#978=ORIENTED_EDGE('',*,*,#731,.T.);
#979=ORIENTED_EDGE('',*,*,#732,.T.);
#980=ORIENTED_EDGE('',*,*,#733,.T.);
#981=ORIENTED_EDGE('',*,*,#734,.T.);
#982=ORIENTED_EDGE('',*,*,#735,.F.);
#983=ORIENTED_EDGE('',*,*,#736,.T.);
#984=ORIENTED_EDGE('',*,*,#737,.T.);
#985=ORIENTED_EDGE('',*,*,#738,.T.);
#986=ORIENTED_EDGE('',*,*,#739,.F.);
#987=ORIENTED_EDGE('',*,*,#733,.F.);
#988=ORIENTED_EDGE('',*,*,#740,.T.);
#989=ORIENTED_EDGE('',*,*,#741,.T.);
#990=ORIENTED_EDGE('',*,*,#742,.F.);
#991=ORIENTED_EDGE('',*,*,#730,.F.);
#992=ORIENTED_EDGE('',*,*,#739,.T.);
#993=ORIENTED_EDGE('',*,*,#743,.F.);
#994=ORIENTED_EDGE('',*,*,#744,.F.);
#995=ORIENTED_EDGE('',*,*,#731,.F.);
#996=ORIENTED_EDGE('',*,*,#742,.T.);
#997=ORIENTED_EDGE('',*,*,#726,.F.);
#998=ORIENTED_EDGE('',*,*,#740,.F.);
#999=ORIENTED_EDGE('',*,*,#732,.F.);
#1000=ORIENTED_EDGE('',*,*,#744,.T.);
#1001=ORIENTED_EDGE('',*,*,#745,.T.);
#1002=ORIENTED_EDGE('',*,*,#746,.T.);
#1003=ORIENTED_EDGE('',*,*,#747,.T.);
#1004=ORIENTED_EDGE('',*,*,#748,.T.);
#1005=ORIENTED_EDGE('',*,*,#749,.T.);
#1006=ORIENTED_EDGE('',*,*,#750,.F.);
#1007=ORIENTED_EDGE('',*,*,#745,.F.);
#1008=ORIENTED_EDGE('',*,*,#751,.T.);
#1009=ORIENTED_EDGE('',*,*,#752,.F.);
#1010=ORIENTED_EDGE('',*,*,#753,.F.);
#1011=ORIENTED_EDGE('',*,*,#746,.F.);
#1012=ORIENTED_EDGE('',*,*,#750,.T.);
#1013=ORIENTED_EDGE('',*,*,#754,.T.);
#1014=ORIENTED_EDGE('',*,*,#755,.F.);
#1015=ORIENTED_EDGE('',*,*,#747,.F.);
#1016=ORIENTED_EDGE('',*,*,#753,.T.);
#1017=ORIENTED_EDGE('',*,*,#756,.T.);
#1018=ORIENTED_EDGE('',*,*,#751,.F.);
#1019=ORIENTED_EDGE('',*,*,#748,.F.);
#1020=ORIENTED_EDGE('',*,*,#755,.T.);
#1021=ORIENTED_EDGE('',*,*,#757,.T.);
#1022=ORIENTED_EDGE('',*,*,#758,.F.);
#1023=ORIENTED_EDGE('',*,*,#759,.F.);
#1024=ORIENTED_EDGE('',*,*,#760,.F.);
#1025=ORIENTED_EDGE('',*,*,#709,.T.);
#1026=ORIENTED_EDGE('',*,*,#719,.F.);
#1027=ORIENTED_EDGE('',*,*,#729,.F.);
#1028=ORIENTED_EDGE('',*,*,#696,.T.);
#1029=ORIENTED_EDGE('',*,*,#761,.F.);
#1030=ORIENTED_EDGE('',*,*,#757,.F.);
#1031=ORIENTED_EDGE('',*,*,#762,.F.);
#1032=ORIENTED_EDGE('',*,*,#763,.F.);
#1033=ORIENTED_EDGE('',*,*,#764,.F.);
#1034=ORIENTED_EDGE('',*,*,#765,.T.);
#1035=ORIENTED_EDGE('',*,*,#713,.F.);
#1036=ORIENTED_EDGE('',*,*,#766,.F.);
#1037=ORIENTED_EDGE('',*,*,#705,.F.);
#1038=ORIENTED_EDGE('',*,*,#767,.T.);
#1039=ORIENTED_EDGE('',*,*,#768,.F.);
#1040=ORIENTED_EDGE('',*,*,#693,.F.);
#1041=ORIENTED_EDGE('',*,*,#769,.F.);
#1042=ORIENTED_EDGE('',*,*,#759,.T.);
#1043=ORIENTED_EDGE('',*,*,#770,.F.);
#1044=ORIENTED_EDGE('',*,*,#685,.T.);
#1045=ORIENTED_EDGE('',*,*,#690,.F.);
#1046=ORIENTED_EDGE('',*,*,#716,.F.);
#1047=ORIENTED_EDGE('',*,*,#701,.T.);
#1048=ORIENTED_EDGE('',*,*,#771,.F.);
#1049=ORIENTED_EDGE('',*,*,#772,.T.);
#1050=ORIENTED_EDGE('',*,*,#773,.F.);
#1051=ORIENTED_EDGE('',*,*,#741,.F.);
#1052=ORIENTED_EDGE('',*,*,#774,.F.);
#1053=ORIENTED_EDGE('',*,*,#775,.T.);
#1054=ORIENTED_EDGE('',*,*,#776,.F.);
#1055=ORIENTED_EDGE('',*,*,#772,.F.);
#1056=ORIENTED_EDGE('',*,*,#777,.F.);
#1057=ORIENTED_EDGE('',*,*,#754,.F.);
#1058=ORIENTED_EDGE('',*,*,#778,.F.);
#1059=ORIENTED_EDGE('',*,*,#775,.F.);
#1060=ORIENTED_EDGE('',*,*,#779,.F.);
#1061=ORIENTED_EDGE('',*,*,#703,.F.);
#1062=ORIENTED_EDGE('',*,*,#717,.F.);
#1063=ORIENTED_EDGE('',*,*,#691,.F.);
#1064=ORIENTED_EDGE('',*,*,#687,.T.);
#1065=ORIENTED_EDGE('',*,*,#780,.F.);
#1066=ORIENTED_EDGE('',*,*,#749,.F.);
#1067=ORIENTED_EDGE('',*,*,#781,.F.);
#1068=ORIENTED_EDGE('',*,*,#695,.F.);
#1069=ORIENTED_EDGE('',*,*,#782,.F.);
#1070=ORIENTED_EDGE('',*,*,#783,.T.);
#1071=ORIENTED_EDGE('',*,*,#707,.F.);
#1072=ORIENTED_EDGE('',*,*,#734,.F.);
#1073=ORIENTED_EDGE('',*,*,#706,.F.);
#1074=ORIENTED_EDGE('',*,*,#784,.F.);
#1075=ORIENTED_EDGE('',*,*,#785,.T.);
#1076=ORIENTED_EDGE('',*,*,#735,.T.);
#1077=ORIENTED_EDGE('',*,*,#771,.T.);
#1078=ORIENTED_EDGE('',*,*,#786,.F.);
#1079=ORIENTED_EDGE('',*,*,#787,.T.);
#1080=ORIENTED_EDGE('',*,*,#784,.T.);
#1081=ORIENTED_EDGE('',*,*,#700,.T.);
#1082=ORIENTED_EDGE('',*,*,#737,.F.);
#1083=ORIENTED_EDGE('',*,*,#788,.T.);
#1084=ORIENTED_EDGE('',*,*,#786,.T.);
#1085=ORIENTED_EDGE('',*,*,#736,.F.);
#1086=ORIENTED_EDGE('',*,*,#785,.F.);
#1087=ORIENTED_EDGE('',*,*,#787,.F.);
#1088=ORIENTED_EDGE('',*,*,#788,.F.);
#1089=ORIENTED_EDGE('',*,*,#712,.F.);
#1090=ORIENTED_EDGE('',*,*,#789,.F.);
#1091=ORIENTED_EDGE('',*,*,#790,.T.);
#1092=ORIENTED_EDGE('',*,*,#791,.T.);
#1093=ORIENTED_EDGE('',*,*,#721,.F.);
#1094=ORIENTED_EDGE('',*,*,#792,.F.);
#1095=ORIENTED_EDGE('',*,*,#793,.T.);
#1096=ORIENTED_EDGE('',*,*,#789,.T.);
#1097=ORIENTED_EDGE('',*,*,#710,.T.);
#1098=ORIENTED_EDGE('',*,*,#794,.F.);
#1099=ORIENTED_EDGE('',*,*,#795,.T.);
#1100=ORIENTED_EDGE('',*,*,#792,.T.);
#1101=ORIENTED_EDGE('',*,*,#766,.T.);
#1102=ORIENTED_EDGE('',*,*,#791,.F.);
#1103=ORIENTED_EDGE('',*,*,#796,.T.);
#1104=ORIENTED_EDGE('',*,*,#794,.T.);
#1105=ORIENTED_EDGE('',*,*,#796,.F.);
#1106=ORIENTED_EDGE('',*,*,#790,.F.);
#1107=ORIENTED_EDGE('',*,*,#793,.F.);
#1108=ORIENTED_EDGE('',*,*,#795,.F.);
#1109=ORIENTED_EDGE('',*,*,#797,.T.);
#1110=ORIENTED_EDGE('',*,*,#763,.T.);
#1111=ORIENTED_EDGE('',*,*,#798,.F.);
#1112=ORIENTED_EDGE('',*,*,#724,.F.);
#1113=ORIENTED_EDGE('',*,*,#760,.T.);
#1114=ORIENTED_EDGE('',*,*,#769,.T.);
#1115=ORIENTED_EDGE('',*,*,#692,.T.);
#1116=ORIENTED_EDGE('',*,*,#781,.T.);
#1117=ORIENTED_EDGE('',*,*,#756,.F.);
#1118=ORIENTED_EDGE('',*,*,#779,.T.);
#1119=ORIENTED_EDGE('',*,*,#777,.T.);
#1120=ORIENTED_EDGE('',*,*,#774,.T.);
#1121=ORIENTED_EDGE('',*,*,#738,.F.);
#1122=ORIENTED_EDGE('',*,*,#725,.F.);
#1123=ORIENTED_EDGE('',*,*,#798,.T.);
#1124=ORIENTED_EDGE('',*,*,#762,.T.);
#1125=ORIENTED_EDGE('',*,*,#799,.T.);
#1126=ORIENTED_EDGE('',*,*,#764,.T.);
#1127=ORIENTED_EDGE('',*,*,#797,.F.);
#1128=ORIENTED_EDGE('',*,*,#723,.F.);
#1129=ORIENTED_EDGE('',*,*,#765,.F.);
#1130=ORIENTED_EDGE('',*,*,#799,.F.);
#1131=ORIENTED_EDGE('',*,*,#722,.T.);
#1132=ORIENTED_EDGE('',*,*,#714,.T.);
#1133=ORIENTED_EDGE('',*,*,#767,.F.);
#1134=ORIENTED_EDGE('',*,*,#704,.T.);
#1135=ORIENTED_EDGE('',*,*,#783,.F.);
#1136=ORIENTED_EDGE('',*,*,#800,.F.);
#1137=ORIENTED_EDGE('',*,*,#694,.F.);
#1138=ORIENTED_EDGE('',*,*,#768,.T.);
#1139=ORIENTED_EDGE('',*,*,#800,.T.);
#1140=ORIENTED_EDGE('',*,*,#782,.T.);
#1141=ORIENTED_EDGE('',*,*,#686,.F.);
#1142=ORIENTED_EDGE('',*,*,#770,.T.);
#1143=ORIENTED_EDGE('',*,*,#758,.T.);
#1144=ORIENTED_EDGE('',*,*,#761,.T.);
#1145=ORIENTED_EDGE('',*,*,#699,.F.);
#1146=ORIENTED_EDGE('',*,*,#727,.F.);
#1147=ORIENTED_EDGE('',*,*,#743,.T.);
#1148=ORIENTED_EDGE('',*,*,#773,.T.);
#1149=ORIENTED_EDGE('',*,*,#776,.T.);
#1150=ORIENTED_EDGE('',*,*,#778,.T.);
#1151=ORIENTED_EDGE('',*,*,#752,.T.);
#1152=ORIENTED_EDGE('',*,*,#780,.T.);
#1153=PLANE('',#1378);
#1154=PLANE('',#1379);
#1155=PLANE('',#1380);
#1156=PLANE('',#1381);
#1157=PLANE('',#1382);
#1158=PLANE('',#1383);
#1159=PLANE('',#1384);
#1160=PLANE('',#1385);
#1161=PLANE('',#1386);
#1162=PLANE('',#1387);
#1163=PLANE('',#1388);
#1164=PLANE('',#1389);
#1165=PLANE('',#1390);
#1166=PLANE('',#1391);
#1167=PLANE('',#1392);
#1168=PLANE('',#1393);
#1169=PLANE('',#1394);
#1170=PLANE('',#1395);
#1171=PLANE('',#1396);
#1172=PLANE('',#1397);
#1173=PLANE('',#1398);
#1174=PLANE('',#1399);
#1175=PLANE('',#1404);
#1176=PLANE('',#1411);
#1177=PLANE('',#1412);
#1178=PLANE('',#1413);
#1179=PLANE('',#1414);
#1180=PLANE('',#1421);
#1181=PLANE('',#1424);
#1182=PLANE('',#1425);
#1183=PLANE('',#1426);
#1184=PLANE('',#1427);
#1185=PLANE('',#1428);
#1186=PLANE('',#1429);
#1187=PLANE('',#1430);
#1188=PLANE('',#1431);
#1189=PLANE('',#1432);
#1190=PLANE('',#1433);
#1191=PLANE('',#1434);
#1192=PLANE('',#1435);
#1193=PLANE('',#1436);
#1194=PLANE('',#1437);
#1195=PLANE('',#1440);
#1196=PLANE('',#1442);
#1197=PLANE('',#1443);
#1198=PLANE('',#1444);
#1199=PLANE('',#1445);
#1200=PLANE('',#1447);
#1201=PLANE('',#1448);
#1202=PLANE('',#1449);
#1203=PLANE('',#1450);
#1204=PLANE('',#1451);
#1205=PLANE('',#1452);
#1206=PLANE('',#1453);
#1207=PLANE('',#1454);
#1208=PLANE('',#1455);
#1209=PLANE('',#1457);
#1210=PLANE('',#1458);
#1211=PLANE('',#1461);
#1212=PLANE('',#1462);
#1213=STYLED_ITEM('',(#2207),#1283);
#1214=STYLED_ITEM('',(#2207),#1284);
#1215=STYLED_ITEM('',(#2207),#1285);
#1216=STYLED_ITEM('',(#2207),#1286);
#1217=STYLED_ITEM('',(#2207),#1287);
#1218=STYLED_ITEM('',(#2207),#1288);
#1219=STYLED_ITEM('',(#2207),#1289);
#1220=STYLED_ITEM('',(#2207),#1290);
#1221=STYLED_ITEM('',(#2207),#1291);
#1222=STYLED_ITEM('',(#2207),#1292);
#1223=STYLED_ITEM('',(#2207),#1293);
#1224=STYLED_ITEM('',(#2207),#1294);
#1225=STYLED_ITEM('',(#2207),#1295);
#1226=STYLED_ITEM('',(#2207),#1296);
#1227=STYLED_ITEM('',(#2207),#1297);
#1228=STYLED_ITEM('',(#2207),#1298);
#1229=STYLED_ITEM('',(#2207),#1299);
#1230=STYLED_ITEM('',(#2207),#1300);
#1231=STYLED_ITEM('',(#2207),#1301);
#1232=STYLED_ITEM('',(#2207),#1302);
#1233=STYLED_ITEM('',(#2207),#1303);
#1234=STYLED_ITEM('',(#2207),#1304);
#1235=STYLED_ITEM('',(#2206),#47);
#1236=STYLED_ITEM('',(#2208),#1305);
#1237=STYLED_ITEM('',(#2208),#1306);
#1238=STYLED_ITEM('',(#2208),#1307);
#1239=STYLED_ITEM('',(#2208),#1308);
#1240=STYLED_ITEM('',(#2208),#1309);
#1241=STYLED_ITEM('',(#2208),#1310);
#1242=STYLED_ITEM('',(#2208),#1311);
#1243=STYLED_ITEM('',(#2208),#1312);
#1244=STYLED_ITEM('',(#2208),#1313);
#1245=STYLED_ITEM('',(#2208),#1314);
#1246=STYLED_ITEM('',(#2208),#1315);
#1247=STYLED_ITEM('',(#2208),#1316);
#1248=STYLED_ITEM('',(#2208),#1317);
#1249=STYLED_ITEM('',(#2208),#1318);
#1250=STYLED_ITEM('',(#2208),#1319);
#1251=STYLED_ITEM('',(#2208),#1320);
#1252=STYLED_ITEM('',(#2208),#1321);
#1253=STYLED_ITEM('',(#2208),#1322);
#1254=STYLED_ITEM('',(#2208),#1323);
#1255=STYLED_ITEM('',(#2208),#1324);
#1256=STYLED_ITEM('',(#2208),#1325);
#1257=STYLED_ITEM('',(#2208),#1326);
#1258=STYLED_ITEM('',(#2208),#1327);
#1259=STYLED_ITEM('',(#2208),#1328);
#1260=STYLED_ITEM('',(#2208),#1329);
#1261=STYLED_ITEM('',(#2208),#1330);
#1262=STYLED_ITEM('',(#2208),#1331);
#1263=STYLED_ITEM('',(#2208),#1332);
#1264=STYLED_ITEM('',(#2208),#1333);
#1265=STYLED_ITEM('',(#2208),#1334);
#1266=STYLED_ITEM('',(#2208),#1335);
#1267=STYLED_ITEM('',(#2208),#1336);
#1268=STYLED_ITEM('',(#2208),#1337);
#1269=STYLED_ITEM('',(#2208),#1338);
#1270=STYLED_ITEM('',(#2208),#1339);
#1271=STYLED_ITEM('',(#2208),#1340);
#1272=STYLED_ITEM('',(#2208),#1341);
#1273=STYLED_ITEM('',(#2208),#1342);
#1274=STYLED_ITEM('',(#2208),#1343);
#1275=STYLED_ITEM('',(#2208),#1344);
#1276=STYLED_ITEM('',(#2208),#1345);
#1277=STYLED_ITEM('',(#2208),#1346);
#1278=STYLED_ITEM('',(#2208),#1347);
#1279=STYLED_ITEM('',(#2208),#1348);
#1280=STYLED_ITEM('',(#2208),#1349);
#1281=STYLED_ITEM('',(#2208),#1350);
#1282=STYLED_ITEM('',(#2206),#48);
#1283=ADVANCED_FACE('',(#53),#1153,.T.);
#1284=ADVANCED_FACE('',(#54),#1154,.T.);
#1285=ADVANCED_FACE('',(#55),#1155,.T.);
#1286=ADVANCED_FACE('',(#56),#1156,.F.);
#1287=ADVANCED_FACE('',(#57),#1157,.T.);
#1288=ADVANCED_FACE('',(#58),#1158,.F.);
#1289=ADVANCED_FACE('',(#59),#1159,.T.);
#1290=ADVANCED_FACE('',(#60),#1160,.F.);
#1291=ADVANCED_FACE('',(#61),#1161,.F.);
#1292=ADVANCED_FACE('',(#62,#49),#1162,.F.);
#1293=ADVANCED_FACE('',(#63,#50),#1163,.F.);
#1294=ADVANCED_FACE('',(#64),#1164,.T.);
#1295=ADVANCED_FACE('',(#65),#1165,.T.);
#1296=ADVANCED_FACE('',(#66),#1166,.T.);
#1297=ADVANCED_FACE('',(#67),#1167,.T.);
#1298=ADVANCED_FACE('',(#68),#1168,.T.);
#1299=ADVANCED_FACE('',(#69),#1169,.T.);
#1300=ADVANCED_FACE('',(#70),#1170,.T.);
#1301=ADVANCED_FACE('',(#71,#51),#1171,.T.);
#1302=ADVANCED_FACE('',(#72,#52),#1172,.T.);
#1303=ADVANCED_FACE('',(#73),#1173,.F.);
#1304=ADVANCED_FACE('',(#74),#1174,.T.);
#1305=ADVANCED_FACE('',(#75),#35,.F.);
#1306=ADVANCED_FACE('',(#76),#1175,.F.);
#1307=ADVANCED_FACE('',(#77),#36,.T.);
#1308=ADVANCED_FACE('',(#78),#37,.F.);
#1309=ADVANCED_FACE('',(#79),#1176,.F.);
#1310=ADVANCED_FACE('',(#80),#1177,.F.);
#1311=ADVANCED_FACE('',(#81),#1178,.F.);
#1312=ADVANCED_FACE('',(#82),#1179,.F.);
#1313=ADVANCED_FACE('',(#83),#38,.T.);
#1314=ADVANCED_FACE('',(#84),#39,.T.);
#1315=ADVANCED_FACE('',(#85),#1180,.T.);
#1316=ADVANCED_FACE('',(#86),#1181,.F.);
#1317=ADVANCED_FACE('',(#87),#1182,.T.);
#1318=ADVANCED_FACE('',(#88),#1183,.T.);
#1319=ADVANCED_FACE('',(#89),#1184,.T.);
#1320=ADVANCED_FACE('',(#90),#1185,.T.);
#1321=ADVANCED_FACE('',(#91),#1186,.T.);
#1322=ADVANCED_FACE('',(#92),#1187,.T.);
#1323=ADVANCED_FACE('',(#93),#1188,.T.);
#1324=ADVANCED_FACE('',(#94),#1189,.T.);
#1325=ADVANCED_FACE('',(#95),#1190,.T.);
#1326=ADVANCED_FACE('',(#96),#1191,.T.);
#1327=ADVANCED_FACE('',(#97),#1192,.T.);
#1328=ADVANCED_FACE('',(#98),#1193,.F.);
#1329=ADVANCED_FACE('',(#99),#1194,.F.);
#1330=ADVANCED_FACE('',(#100),#1195,.F.);
#1331=ADVANCED_FACE('',(#101),#1196,.F.);
#1332=ADVANCED_FACE('',(#102),#1197,.F.);
#1333=ADVANCED_FACE('',(#103),#1198,.F.);
#1334=ADVANCED_FACE('',(#104),#1199,.F.);
#1335=ADVANCED_FACE('',(#105),#1200,.T.);
#1336=ADVANCED_FACE('',(#106),#1201,.T.);
#1337=ADVANCED_FACE('',(#107),#1202,.T.);
#1338=ADVANCED_FACE('',(#108),#1203,.F.);
#1339=ADVANCED_FACE('',(#109),#1204,.T.);
#1340=ADVANCED_FACE('',(#110),#1205,.T.);
#1341=ADVANCED_FACE('',(#111),#1206,.T.);
#1342=ADVANCED_FACE('',(#112),#1207,.T.);
#1343=ADVANCED_FACE('',(#113),#1208,.F.);
#1344=ADVANCED_FACE('',(#114),#40,.T.);
#1345=ADVANCED_FACE('',(#115),#1209,.F.);
#1346=ADVANCED_FACE('',(#116),#1210,.F.);
#1347=ADVANCED_FACE('',(#117),#41,.F.);
#1348=ADVANCED_FACE('',(#118),#42,.F.);
#1349=ADVANCED_FACE('',(#119),#1211,.F.);
#1350=ADVANCED_FACE('',(#120),#1212,.F.);
#1351=CLOSED_SHELL('',(#1283,#1284,#1285,#1286,#1287,#1288,#1289,#1290,
#1291,#1292,#1293,#1294,#1295,#1296,#1297,#1298,#1299,#1300,#1301,#1302,
#1303,#1304));
#1352=CLOSED_SHELL('',(#1305,#1306,#1307,#1308,#1309,#1310,#1311,#1312,
#1313,#1314,#1315,#1316,#1317,#1318,#1319,#1320,#1321,#1322,#1323,#1324,
#1325,#1326,#1327,#1328,#1329,#1330,#1331,#1332,#1333,#1334,#1335,#1336,
#1337,#1338,#1339,#1340,#1341,#1342,#1343,#1344,#1345,#1346,#1347,#1348,
#1349,#1350));
#1353=DERIVED_UNIT_ELEMENT(#1357,1.);
#1354=DERIVED_UNIT_ELEMENT(#2175,-3.);
#1355=DERIVED_UNIT_ELEMENT(#1357,1.);
#1356=DERIVED_UNIT_ELEMENT(#2175,-3.);
#1357=(
MASS_UNIT()
NAMED_UNIT(*)
SI_UNIT(.KILO.,.GRAM.)
);
#1358=DERIVED_UNIT((#1353,#1354));
#1359=DERIVED_UNIT((#1355,#1356));
#1360=MEASURE_REPRESENTATION_ITEM('density measure',
POSITIVE_RATIO_MEASURE(7850.),#1358);
#1361=MEASURE_REPRESENTATION_ITEM('density measure',
POSITIVE_RATIO_MEASURE(7850.),#1359);
#1362=PROPERTY_DEFINITION_REPRESENTATION(#1372,#1366);
#1363=PROPERTY_DEFINITION_REPRESENTATION(#1373,#1367);
#1364=PROPERTY_DEFINITION_REPRESENTATION(#1374,#1368);
#1365=PROPERTY_DEFINITION_REPRESENTATION(#1375,#1369);
#1366=REPRESENTATION('material name',(#1370),#2169);
#1367=REPRESENTATION('density',(#1360),#2169);
#1368=REPRESENTATION('material name',(#1371),#2170);
#1369=REPRESENTATION('density',(#1361),#2170);
#1370=DESCRIPTIVE_REPRESENTATION_ITEM('Stahl','Stahl');
#1371=DESCRIPTIVE_REPRESENTATION_ITEM('Stahl','Stahl');
#1372=PROPERTY_DEFINITION('material property','material name',#2192);
#1373=PROPERTY_DEFINITION('material property','density of part',#2192);
#1374=PROPERTY_DEFINITION('material property','material name',#2193);
#1375=PROPERTY_DEFINITION('material property','density of part',#2193);
#1376=AXIS2_PLACEMENT_3D('placement',#1803,#1465,#1466);
#1377=AXIS2_PLACEMENT_3D('placement',#1804,#1467,#1468);
#1378=AXIS2_PLACEMENT_3D('',#1805,#1469,#1470);
#1379=AXIS2_PLACEMENT_3D('',#1814,#1475,#1476);
#1380=AXIS2_PLACEMENT_3D('',#1823,#1481,#1482);
#1381=AXIS2_PLACEMENT_3D('',#1834,#1489,#1490);
#1382=AXIS2_PLACEMENT_3D('',#1849,#1499,#1500);
#1383=AXIS2_PLACEMENT_3D('',#1851,#1502,#1503);
#1384=AXIS2_PLACEMENT_3D('',#1857,#1507,#1508);
#1385=AXIS2_PLACEMENT_3D('',#1866,#1513,#1514);
#1386=AXIS2_PLACEMENT_3D('',#1872,#1518,#1519);
#1387=AXIS2_PLACEMENT_3D('',#1878,#1523,#1524);
#1388=AXIS2_PLACEMENT_3D('',#1885,#1529,#1530);
#1389=AXIS2_PLACEMENT_3D('',#1895,#1536,#1537);
#1390=AXIS2_PLACEMENT_3D('',#1901,#1541,#1542);
#1391=AXIS2_PLACEMENT_3D('',#1905,#1545,#1546);
#1392=AXIS2_PLACEMENT_3D('',#1909,#1549,#1550);
#1393=AXIS2_PLACEMENT_3D('',#1911,#1552,#1553);
#1394=AXIS2_PLACEMENT_3D('',#1915,#1556,#1557);
#1395=AXIS2_PLACEMENT_3D('',#1919,#1560,#1561);
#1396=AXIS2_PLACEMENT_3D('',#1921,#1563,#1564);
#1397=AXIS2_PLACEMENT_3D('',#1923,#1566,#1567);
#1398=AXIS2_PLACEMENT_3D('',#1925,#1569,#1570);
#1399=AXIS2_PLACEMENT_3D('',#1926,#1571,#1572);
#1400=AXIS2_PLACEMENT_3D('placement',#1927,#1573,#1574);
#1401=AXIS2_PLACEMENT_3D('',#1928,#1575,#1576);
#1402=AXIS2_PLACEMENT_3D('',#1931,#1577,#1578);
#1403=AXIS2_PLACEMENT_3D('',#1935,#1580,#1581);
#1404=AXIS2_PLACEMENT_3D('',#1937,#1583,#1584);
#1405=AXIS2_PLACEMENT_3D('',#1943,#1588,#1589);
#1406=AXIS2_PLACEMENT_3D('',#1948,#1591,#1592);
#1407=AXIS2_PLACEMENT_3D('',#1951,#1594,#1595);
#1408=AXIS2_PLACEMENT_3D('',#1952,#1596,#1597);
#1409=AXIS2_PLACEMENT_3D('',#1955,#1598,#1599);
#1410=AXIS2_PLACEMENT_3D('',#1959,#1601,#1602);
#1411=AXIS2_PLACEMENT_3D('',#1961,#1604,#1605);
#1412=AXIS2_PLACEMENT_3D('',#1970,#1610,#1611);
#1413=AXIS2_PLACEMENT_3D('',#1979,#1616,#1617);
#1414=AXIS2_PLACEMENT_3D('',#1988,#1622,#1623);
#1415=AXIS2_PLACEMENT_3D('',#1997,#1628,#1629);
#1416=AXIS2_PLACEMENT_3D('',#1998,#1630,#1631);
#1417=AXIS2_PLACEMENT_3D('',#1999,#1632,#1633);
#1418=AXIS2_PLACEMENT_3D('',#2000,#1634,#1635);
#1419=AXIS2_PLACEMENT_3D('',#2004,#1637,#1638);
#1420=AXIS2_PLACEMENT_3D('',#2005,#1639,#1640);
#1421=AXIS2_PLACEMENT_3D('',#2006,#1641,#1642);
#1422=AXIS2_PLACEMENT_3D('',#2009,#1644,#1645);
#1423=AXIS2_PLACEMENT_3D('',#2013,#1647,#1648);
#1424=AXIS2_PLACEMENT_3D('',#2020,#1653,#1654);
#1425=AXIS2_PLACEMENT_3D('',#2022,#1656,#1657);
#1426=AXIS2_PLACEMENT_3D('',#2031,#1662,#1663);
#1427=AXIS2_PLACEMENT_3D('',#2038,#1668,#1669);
#1428=AXIS2_PLACEMENT_3D('',#2043,#1673,#1674);
#1429=AXIS2_PLACEMENT_3D('',#2047,#1677,#1678);
#1430=AXIS2_PLACEMENT_3D('',#2050,#1681,#1682);
#1431=AXIS2_PLACEMENT_3D('',#2051,#1683,#1684);
#1432=AXIS2_PLACEMENT_3D('',#2060,#1689,#1690);
#1433=AXIS2_PLACEMENT_3D('',#2066,#1694,#1695);
#1434=AXIS2_PLACEMENT_3D('',#2070,#1698,#1699);
#1435=AXIS2_PLACEMENT_3D('',#2074,#1702,#1703);
#1436=AXIS2_PLACEMENT_3D('',#2076,#1705,#1706);
#1437=AXIS2_PLACEMENT_3D('',#2085,#1711,#1712);
#1438=AXIS2_PLACEMENT_3D('',#2090,#1715,#1716);
#1439=AXIS2_PLACEMENT_3D('',#2093,#1718,#1719);
#1440=AXIS2_PLACEMENT_3D('',#2095,#1721,#1722);
#1441=AXIS2_PLACEMENT_3D('',#2097,#1723,#1724);
#1442=AXIS2_PLACEMENT_3D('',#2102,#1729,#1730);
#1443=AXIS2_PLACEMENT_3D('',#2108,#1734,#1735);
#1444=AXIS2_PLACEMENT_3D('',#2114,#1739,#1740);
#1445=AXIS2_PLACEMENT_3D('',#2117,#1743,#1744);
#1446=AXIS2_PLACEMENT_3D('',#2122,#1748,#1749);
#1447=AXIS2_PLACEMENT_3D('',#2123,#1750,#1751);
#1448=AXIS2_PLACEMENT_3D('',#2127,#1754,#1755);
#1449=AXIS2_PLACEMENT_3D('',#2131,#1758,#1759);
#1450=AXIS2_PLACEMENT_3D('',#2133,#1761,#1762);
#1451=AXIS2_PLACEMENT_3D('',#2134,#1763,#1764);
#1452=AXIS2_PLACEMENT_3D('',#2140,#1768,#1769);
#1453=AXIS2_PLACEMENT_3D('',#2144,#1772,#1773);
#1454=AXIS2_PLACEMENT_3D('',#2148,#1776,#1777);
#1455=AXIS2_PLACEMENT_3D('',#2150,#1779,#1780);
#1456=AXIS2_PLACEMENT_3D('',#2151,#1781,#1782);
#1457=AXIS2_PLACEMENT_3D('',#2154,#1785,#1786);
#1458=AXIS2_PLACEMENT_3D('',#2155,#1787,#1788);
#1459=AXIS2_PLACEMENT_3D('',#2157,#1790,#1791);
#1460=AXIS2_PLACEMENT_3D('',#2158,#1792,#1793);
#1461=AXIS2_PLACEMENT_3D('',#2160,#1795,#1796);
#1462=AXIS2_PLACEMENT_3D('',#2161,#1797,#1798);
#1463=AXIS2_PLACEMENT_3D('',#2162,#1799,#1800);
#1464=AXIS2_PLACEMENT_3D('',#2163,#1801,#1802);
#1465=DIRECTION('axis',(0.,0.,1.));
#1466=DIRECTION('refdir',(1.,0.,0.));
#1467=DIRECTION('axis',(0.,0.,1.));
#1468=DIRECTION('refdir',(1.,0.,0.));
#1469=DIRECTION('center_axis',(0.,0.,-1.));
#1470=DIRECTION('ref_axis',(-1.,0.,0.));
#1471=DIRECTION('',(-1.,0.,0.));
#1472=DIRECTION('',(0.,-1.,0.));
#1473=DIRECTION('',(-1.,0.,0.));
#1474=DIRECTION('',(0.,-1.,0.));
#1475=DIRECTION('center_axis',(0.,0.,1.));
#1476=DIRECTION('ref_axis',(1.,0.,0.));
#1477=DIRECTION('',(1.,0.,0.));
#1478=DIRECTION('',(0.,-1.,0.));
#1479=DIRECTION('',(1.,0.,0.));
#1480=DIRECTION('',(0.,-1.,0.));
#1481=DIRECTION('center_axis',(-1.,0.,0.));
#1482=DIRECTION('ref_axis',(0.,0.,1.));
#1483=DIRECTION('',(0.,0.,-1.));
#1484=DIRECTION('',(0.,1.,0.));
#1485=DIRECTION('',(0.,0.,1.));
#1486=DIRECTION('',(0.,0.,-1.));
#1487=DIRECTION('',(0.,0.,1.));
#1488=DIRECTION('',(0.,1.,0.));
#1489=DIRECTION('center_axis',(0.,1.,0.));
#1490=DIRECTION('ref_axis',(0.,0.,1.));
#1491=DIRECTION('',(0.,0.,-1.));
#1492=DIRECTION('',(1.,0.,0.));
#1493=DIRECTION('',(0.,0.,-1.));
#1494=DIRECTION('',(1.,0.,0.));
#1495=DIRECTION('',(0.,0.,-1.));
#1496=DIRECTION('',(1.,0.,0.));
#1497=DIRECTION('',(0.,0.,-1.));
#1498=DIRECTION('',(1.,0.,0.));
#1499=DIRECTION('center_axis',(0.,1.,0.));
#1500=DIRECTION('ref_axis',(0.,0.,1.));
#1501=DIRECTION('',(0.,0.,-1.));
#1502=DIRECTION('center_axis',(1.,0.,0.));
#1503=DIRECTION('ref_axis',(0.,0.,-1.));
#1504=DIRECTION('',(0.,-1.,0.));
#1505=DIRECTION('',(0.,-1.,0.));
#1506=DIRECTION('',(0.,0.,-1.));
#1507=DIRECTION('center_axis',(0.,-1.,0.));
#1508=DIRECTION('ref_axis',(0.,0.,-1.));
#1509=DIRECTION('',(-1.,0.,0.));
#1510=DIRECTION('',(0.,0.,-1.));
#1511=DIRECTION('',(-1.,0.,0.));
#1512=DIRECTION('',(0.,0.,-1.));
#1513=DIRECTION('center_axis',(0.,-1.,0.));
#1514=DIRECTION('ref_axis',(0.,0.,-1.));
#1515=DIRECTION('',(-1.,0.,0.));
#1516=DIRECTION('',(0.,0.,-1.));
#1517=DIRECTION('',(-1.,0.,0.));
#1518=DIRECTION('center_axis',(0.,-1.,0.));
#1519=DIRECTION('ref_axis',(0.,0.,-1.));
#1520=DIRECTION('',(0.,0.,1.));
#1521=DIRECTION('',(-1.,0.,0.));
#1522=DIRECTION('',(-1.,0.,0.));
#1523=DIRECTION('center_axis',(0.,0.,1.));
#1524=DIRECTION('ref_axis',(1.,0.,0.));
#1525=DIRECTION('',(0.,1.,0.));
#1526=DIRECTION('',(0.,-1.,0.));
#1527=DIRECTION('',(1.,-5.44453123737297E-17,0.));
#1528=DIRECTION('',(0.,1.,0.));
#1529=DIRECTION('center_axis',(0.,0.,1.));
#1530=DIRECTION('ref_axis',(1.,0.,0.));
#1531=DIRECTION('',(0.,1.,0.));
#1532=DIRECTION('',(-1.,0.,0.));
#1533=DIRECTION('',(0.,-1.,0.));
#1534=DIRECTION('',(1.,-5.44453123737297E-17,0.));
#1535=DIRECTION('',(0.,1.,0.));
#1536=DIRECTION('center_axis',(0.,-1.,0.));
#1537=DIRECTION('ref_axis',(0.,0.,-1.));
#1538=DIRECTION('',(0.,0.,-1.));
#1539=DIRECTION('',(-1.,0.,0.));
#1540=DIRECTION('',(0.,0.,-1.));
#1541=DIRECTION('center_axis',(-1.,0.,0.));
#1542=DIRECTION('ref_axis',(0.,0.,1.));
#1543=DIRECTION('',(0.,0.,-1.));
#1544=DIRECTION('',(0.,1.,0.));
#1545=DIRECTION('center_axis',(5.44453123737297E-17,1.,0.));
#1546=DIRECTION('ref_axis',(-1.,5.44453123737297E-17,0.));
#1547=DIRECTION('',(0.,0.,-1.));
#1548=DIRECTION('',(1.,-5.44453123737297E-17,0.));
#1549=DIRECTION('center_axis',(1.,0.,0.));
#1550=DIRECTION('ref_axis',(0.,0.,-1.));
#1551=DIRECTION('',(0.,-1.,0.));
#1552=DIRECTION('center_axis',(-1.,0.,0.));
#1553=DIRECTION('ref_axis',(0.,0.,1.));
#1554=DIRECTION('',(0.,0.,-1.));
#1555=DIRECTION('',(0.,1.,0.));
#1556=DIRECTION('center_axis',(5.44453123737297E-17,1.,0.));
#1557=DIRECTION('ref_axis',(-1.,5.44453123737297E-17,0.));
#1558=DIRECTION('',(0.,0.,-1.));
#1559=DIRECTION('',(1.,-5.44453123737297E-17,0.));
#1560=DIRECTION('center_axis',(1.,0.,0.));
#1561=DIRECTION('ref_axis',(0.,0.,-1.));
#1562=DIRECTION('',(0.,-1.,0.));
#1563=DIRECTION('center_axis',(0.,0.,1.));
#1564=DIRECTION('ref_axis',(1.,0.,0.));
#1565=DIRECTION('',(0.,1.,0.));
#1566=DIRECTION('center_axis',(0.,0.,1.));
#1567=DIRECTION('ref_axis',(1.,0.,0.));
#1568=DIRECTION('',(0.,-1.,0.));
#1569=DIRECTION('center_axis',(-1.,0.,0.));
#1570=DIRECTION('ref_axis',(0.,0.,1.));
#1571=DIRECTION('center_axis',(1.,0.,0.));
#1572=DIRECTION('ref_axis',(0.,0.,-1.));
#1573=DIRECTION('axis',(0.,0.,1.));
#1574=DIRECTION('refdir',(1.,0.,0.));
#1575=DIRECTION('center_axis',(1.,0.,0.));
#1576=DIRECTION('ref_axis',(0.,0.,1.));
#1577=DIRECTION('center_axis',(-1.,0.,0.));
#1578=DIRECTION('ref_axis',(0.,0.,1.));
#1579=DIRECTION('',(-1.,0.,0.));
#1580=DIRECTION('center_axis',(1.,0.,0.));
#1581=DIRECTION('ref_axis',(0.,0.,-1.));
#1582=DIRECTION('',(-1.,0.,0.));
#1583=DIRECTION('center_axis',(0.,-0.707106753107475,-0.707106809265619));
#1584=DIRECTION('ref_axis',(0.,0.707106809265619,-0.707106753107475));
#1585=DIRECTION('',(-1.,0.,0.));
#1586=DIRECTION('',(0.,0.707106809265619,-0.707106753107475));
#1587=DIRECTION('',(0.,-0.707106809265619,0.707106753107475));
#1588=DIRECTION('center_axis',(1.,0.,0.));
#1589=DIRECTION('ref_axis',(0.,0.,1.));
#1590=DIRECTION('',(-1.,0.,0.));
#1591=DIRECTION('center_axis',(-1.,0.,0.));
#1592=DIRECTION('ref_axis',(0.,0.,1.));
#1593=DIRECTION('',(-1.,0.,0.));
#1594=DIRECTION('center_axis',(1.,0.,0.));
#1595=DIRECTION('ref_axis',(0.,0.,-1.));
#1596=DIRECTION('center_axis',(1.,0.,0.));
#1597=DIRECTION('ref_axis',(0.,0.,1.));
#1598=DIRECTION('center_axis',(1.,0.,0.));
#1599=DIRECTION('ref_axis',(0.,0.,-1.));
#1600=DIRECTION('',(-1.,0.,0.));
#1601=DIRECTION('center_axis',(1.,0.,0.));
#1602=DIRECTION('ref_axis',(0.,0.,-1.));
#1603=DIRECTION('',(-1.,0.,0.));
#1604=DIRECTION('center_axis',(0.,0.,-1.));
#1605=DIRECTION('ref_axis',(-1.,0.,0.));
#1606=DIRECTION('',(-1.,0.,0.));
#1607=DIRECTION('',(0.,-1.,0.));
#1608=DIRECTION('',(-1.,0.,0.));
#1609=DIRECTION('',(0.,-1.,0.));
#1610=DIRECTION('center_axis',(0.,0.,1.));
#1611=DIRECTION('ref_axis',(1.,0.,0.));
#1612=DIRECTION('',(-1.,0.,0.));
#1613=DIRECTION('',(0.,-1.,0.));
#1614=DIRECTION('',(-1.,0.,0.));
#1615=DIRECTION('',(0.,1.,0.));
#1616=DIRECTION('center_axis',(0.,0.,-1.));
#1617=DIRECTION('ref_axis',(-1.,0.,0.));
#1618=DIRECTION('',(-1.,0.,0.));
#1619=DIRECTION('',(0.,1.,0.));
#1620=DIRECTION('',(-1.,0.,0.));
#1621=DIRECTION('',(0.,-1.,0.));
#1622=DIRECTION('center_axis',(0.,0.,1.));
#1623=DIRECTION('ref_axis',(1.,0.,0.));
#1624=DIRECTION('',(-1.,0.,0.));
#1625=DIRECTION('',(0.,1.,0.));
#1626=DIRECTION('',(-1.,0.,0.));
#1627=DIRECTION('',(0.,1.,0.));
#1628=DIRECTION('center_axis',(1.,0.,0.));
#1629=DIRECTION('ref_axis',(0.,0.,1.));
#1630=DIRECTION('center_axis',(-1.,0.,0.));
#1631=DIRECTION('ref_axis',(0.,0.,1.));
#1632=DIRECTION('center_axis',(1.,0.,0.));
#1633=DIRECTION('ref_axis',(0.,0.,-1.));
#1634=DIRECTION('center_axis',(1.,0.,0.));
#1635=DIRECTION('ref_axis',(0.,0.,1.));
#1636=DIRECTION('',(-1.,0.,0.));
#1637=DIRECTION('center_axis',(1.,0.,0.));
#1638=DIRECTION('ref_axis',(0.,0.,-1.));
#1639=DIRECTION('center_axis',(1.,0.,0.));
#1640=DIRECTION('ref_axis',(0.,0.,-1.));
#1641=DIRECTION('center_axis',(1.,0.,0.));
#1642=DIRECTION('ref_axis',(0.,0.,-1.));
#1643=DIRECTION('',(0.,0.,-1.));
#1644=DIRECTION('center_axis',(1.,0.,0.));
#1645=DIRECTION('ref_axis',(0.,0.,-1.));
#1646=DIRECTION('',(0.,0.707106809265619,-0.707106753107475));
#1647=DIRECTION('center_axis',(1.,0.,0.));
#1648=DIRECTION('ref_axis',(0.,0.,-1.));
#1649=DIRECTION('',(0.,1.,0.));
#1650=DIRECTION('',(0.,0.,1.));
#1651=DIRECTION('',(0.,-1.,0.));
#1652=DIRECTION('',(0.,-0.707106809265619,0.707106753107475));
#1653=DIRECTION('center_axis',(0.,-0.707106753107475,-0.707106809265619));
#1654=DIRECTION('ref_axis',(0.,0.707106809265619,-0.707106753107475));
#1655=DIRECTION('',(0.,-0.707106809265619,0.707106753107475));
#1656=DIRECTION('center_axis',(0.,1.,0.));
#1657=DIRECTION('ref_axis',(0.,0.,1.));
#1658=DIRECTION('',(0.,0.,-1.));
#1659=DIRECTION('',(-1.,0.,0.));
#1660=DIRECTION('',(0.,0.,1.));
#1661=DIRECTION('',(1.,0.,0.));
#1662=DIRECTION('center_axis',(-0.939692620785908,-0.342020143325669,0.));
#1663=DIRECTION('ref_axis',(0.342020143325669,-0.939692620785908,0.));
#1664=DIRECTION('',(0.,0.,-1.));
#1665=DIRECTION('',(-0.323615577118185,0.889126490715988,-0.323615577118185));
#1666=DIRECTION('',(0.,0.,1.));
#1667=DIRECTION('',(-0.323615577118185,0.889126490715988,0.323615577118185));
#1668=DIRECTION('center_axis',(0.,0.342020143325669,-0.939692620785908));
#1669=DIRECTION('ref_axis',(0.,0.939692620785908,0.342020143325669));
#1670=DIRECTION('',(-1.,0.,0.));
#1671=DIRECTION('',(-0.323615577118185,-0.889126490715988,-0.323615577118185));
#1672=DIRECTION('',(0.323615577118185,-0.889126490715988,-0.323615577118185));
#1673=DIRECTION('center_axis',(-0.939692620785908,0.342020143325669,0.));
#1674=DIRECTION('ref_axis',(-0.342020143325669,-0.939692620785908,0.));
#1675=DIRECTION('',(0.,0.,1.));
#1676=DIRECTION('',(-0.323615577118185,-0.889126490715988,0.323615577118185));
#1677=DIRECTION('center_axis',(0.,0.342020143325669,0.939692620785908));
#1678=DIRECTION('ref_axis',(0.,-0.939692620785908,0.342020143325669));
#1679=DIRECTION('',(-1.,0.,0.));
#1680=DIRECTION('',(0.323615577118185,-0.889126490715988,0.323615577118185));
#1681=DIRECTION('center_axis',(0.939692620785908,0.342020143325669,0.));
#1682=DIRECTION('ref_axis',(-0.342020143325669,0.939692620785908,0.));
#1683=DIRECTION('center_axis',(0.,1.,0.));
#1684=DIRECTION('ref_axis',(0.,0.,1.));
#1685=DIRECTION('',(0.,0.,-1.));
#1686=DIRECTION('',(-1.,0.,0.));
#1687=DIRECTION('',(0.,0.,1.));
#1688=DIRECTION('',(1.,0.,0.));
#1689=DIRECTION('center_axis',(-0.939692620785908,0.342020143325669,0.));
#1690=DIRECTION('ref_axis',(-0.342020143325669,-0.939692620785908,0.));
#1691=DIRECTION('',(0.,0.,1.));
#1692=DIRECTION('',(-0.323615577118185,-0.889126490715988,0.323615577118185));
#1693=DIRECTION('',(-0.323615577118185,-0.889126490715988,-0.323615577118185));
#1694=DIRECTION('center_axis',(0.,0.342020143325669,0.939692620785908));
#1695=DIRECTION('ref_axis',(0.,-0.939692620785908,0.342020143325669));
#1696=DIRECTION('',(-1.,0.,0.));
#1697=DIRECTION('',(0.323615577118185,-0.889126490715988,0.323615577118185));
#1698=DIRECTION('center_axis',(0.939692620785908,0.342020143325669,0.));
#1699=DIRECTION('ref_axis',(-0.342020143325669,0.939692620785908,0.));
#1700=DIRECTION('',(0.,0.,-1.));
#1701=DIRECTION('',(0.323615577118185,-0.889126490715988,-0.323615577118185));
#1702=DIRECTION('center_axis',(0.,0.342020143325669,-0.939692620785908));
#1703=DIRECTION('ref_axis',(0.,0.939692620785908,0.342020143325669));
#1704=DIRECTION('',(-1.,0.,0.));
#1705=DIRECTION('center_axis',(0.,1.,0.));
#1706=DIRECTION('ref_axis',(0.,0.,1.));
#1707=DIRECTION('',(0.,0.,1.));
#1708=DIRECTION('',(1.,0.,0.));
#1709=DIRECTION('',(0.,0.,1.));
#1710=DIRECTION('',(-1.,0.,0.));
#1711=DIRECTION('center_axis',(1.,0.,0.));
#1712=DIRECTION('ref_axis',(0.,0.,-1.));
#1713=DIRECTION('',(0.,-1.,0.));
#1714=DIRECTION('',(0.,1.,0.));
#1715=DIRECTION('center_axis',(1.,0.,0.));
#1716=DIRECTION('ref_axis',(0.,0.,-1.));
#1717=DIRECTION('',(0.,0.707106809265619,-0.707106753107475));
#1718=DIRECTION('center_axis',(1.,0.,0.));
#1719=DIRECTION('ref_axis',(0.,0.,-1.));
#1720=DIRECTION('',(0.,0.,-1.));
#1721=DIRECTION('center_axis',(-1.,0.,0.));
#1722=DIRECTION('ref_axis',(0.,0.,1.));
#1723=DIRECTION('center_axis',(-1.,0.,0.));
#1724=DIRECTION('ref_axis',(0.,0.,1.));
#1725=DIRECTION('',(0.,-0.707106809265619,0.707106753107475));
#1726=DIRECTION('',(0.,-1.,0.));
#1727=DIRECTION('',(0.,1.,0.));
#1728=DIRECTION('',(0.,0.,1.));
#1729=DIRECTION('center_axis',(1.,0.,0.));
#1730=DIRECTION('ref_axis',(0.,0.,-1.));
#1731=DIRECTION('',(0.,0.,1.));
#1732=DIRECTION('',(0.,-1.,0.));
#1733=DIRECTION('',(0.,1.,0.));
#1734=DIRECTION('center_axis',(0.,-1.,0.));
#1735=DIRECTION('ref_axis',(0.,0.,-1.));
#1736=DIRECTION('',(0.,0.,1.));
#1737=DIRECTION('',(-1.,0.,0.));
#1738=DIRECTION('',(1.,0.,0.));
#1739=DIRECTION('center_axis',(-1.,0.,0.));
#1740=DIRECTION('ref_axis',(0.,0.,1.));
#1741=DIRECTION('',(0.,1.,0.));
#1742=DIRECTION('',(0.,-1.,0.));
#1743=DIRECTION('center_axis',(1.,0.,0.));
#1744=DIRECTION('ref_axis',(0.,0.,-1.));
#1745=DIRECTION('',(0.,-1.,0.));
#1746=DIRECTION('',(0.,1.,0.));
#1747=DIRECTION('',(0.,0.707106809265619,-0.707106753107475));
#1748=DIRECTION('center_axis',(1.,0.,0.));
#1749=DIRECTION('ref_axis',(0.,0.,-1.));
#1750=DIRECTION('center_axis',(0.,-0.342020143325669,-0.939692620785908));
#1751=DIRECTION('ref_axis',(0.,0.939692620785908,-0.342020143325669));
#1752=DIRECTION('',(0.323615577118185,0.889126490715988,-0.323615577118185));
#1753=DIRECTION('',(-1.,0.,0.));
#1754=DIRECTION('center_axis',(0.939692620785908,-0.342020143325669,0.));
#1755=DIRECTION('ref_axis',(0.342020143325669,0.939692620785908,0.));
#1756=DIRECTION('',(0.323615577118185,0.889126490715988,0.323615577118185));
#1757=DIRECTION('',(0.,0.,-1.));
#1758=DIRECTION('center_axis',(0.,-0.342020143325669,0.939692620785908));
#1759=DIRECTION('ref_axis',(0.,-0.939692620785908,-0.342020143325669));
#1760=DIRECTION('',(1.,0.,0.));
#1761=DIRECTION('center_axis',(0.,1.,0.));
#1762=DIRECTION('ref_axis',(0.,0.,1.));
#1763=DIRECTION('center_axis',(0.,-0.342020143325669,-0.939692620785908));
#1764=DIRECTION('ref_axis',(0.,0.939692620785908,-0.342020143325669));
#1765=DIRECTION('',(0.323615577118185,0.889126490715988,-0.323615577118185));
#1766=DIRECTION('',(-1.,0.,0.));
#1767=DIRECTION('',(-0.323615577118185,0.889126490715988,-0.323615577118185));
#1768=DIRECTION('center_axis',(0.939692620785908,-0.342020143325669,0.));
#1769=DIRECTION('ref_axis',(0.342020143325669,0.939692620785908,0.));
#1770=DIRECTION('',(0.323615577118185,0.889126490715988,0.323615577118185));
#1771=DIRECTION('',(0.,0.,-1.));
#1772=DIRECTION('center_axis',(0.,-0.342020143325669,0.939692620785908));
#1773=DIRECTION('ref_axis',(0.,-0.939692620785908,-0.342020143325669));
#1774=DIRECTION('',(-0.323615577118185,0.889126490715988,0.323615577118185));
#1775=DIRECTION('',(1.,0.,0.));
#1776=DIRECTION('center_axis',(-0.939692620785908,-0.342020143325669,0.));
#1777=DIRECTION('ref_axis',(0.342020143325669,-0.939692620785908,0.));
#1778=DIRECTION('',(0.,0.,1.));
#1779=DIRECTION('center_axis',(0.,1.,0.));
#1780=DIRECTION('ref_axis',(0.,0.,1.));
#1781=DIRECTION('center_axis',(1.,0.,0.));
#1782=DIRECTION('ref_axis',(0.,0.,1.));
#1783=DIRECTION('',(-1.,0.,0.));
#1784=DIRECTION('',(-1.,0.,0.));
#1785=DIRECTION('center_axis',(0.,0.,1.));
#1786=DIRECTION('ref_axis',(1.,0.,0.));
#1787=DIRECTION('center_axis',(0.,0.707106753107475,0.707106809265619));
#1788=DIRECTION('ref_axis',(0.,-0.707106809265619,0.707106753107475));
#1789=DIRECTION('',(-1.,0.,0.));
#1790=DIRECTION('center_axis',(1.,0.,0.));
#1791=DIRECTION('ref_axis',(0.,0.,1.));
#1792=DIRECTION('center_axis',(1.,0.,0.));
#1793=DIRECTION('ref_axis',(0.,0.,1.));
#1794=DIRECTION('',(-1.,0.,0.));
#1795=DIRECTION('center_axis',(0.,0.707106753107475,0.707106809265619));
#1796=DIRECTION('ref_axis',(0.,-0.707106809265619,0.707106753107475));
#1797=DIRECTION('center_axis',(0.,0.,-1.));
#1798=DIRECTION('ref_axis',(-1.,0.,0.));
#1799=DIRECTION('',(0.,0.,1.));
#1800=DIRECTION('',(1.,0.,0.));
#1801=DIRECTION('',(0.,-1.,0.));
#1802=DIRECTION('',(1.,0.,0.));
#1803=CARTESIAN_POINT('',(0.,0.,0.));
#1804=CARTESIAN_POINT('',(0.,0.,0.));
#1805=CARTESIAN_POINT('Origin',(-0.015,0.12,-0.045));
#1806=CARTESIAN_POINT('',(0.015,-0.0599999999999999,-0.045));
#1807=CARTESIAN_POINT('',(-0.015,-0.0599999999999999,-0.045));
#1808=CARTESIAN_POINT('',(-0.1,-0.06,-0.045));
#1809=CARTESIAN_POINT('',(-0.015,0.048,-0.045));
#1810=CARTESIAN_POINT('',(-0.015,0.12,-0.045));
#1811=CARTESIAN_POINT('',(0.015,0.048,-0.045));
#1812=CARTESIAN_POINT('',(-0.015,0.048,-0.045));
#1813=CARTESIAN_POINT('',(0.015,0.12,-0.045));
#1814=CARTESIAN_POINT('Origin',(0.015,0.12,0.045));
#1815=CARTESIAN_POINT('',(-0.015,-0.0599999999999999,0.045));
#1816=CARTESIAN_POINT('',(0.015,-0.0599999999999999,0.045));
#1817=CARTESIAN_POINT('',(-0.1,-0.06,0.045));
#1818=CARTESIAN_POINT('',(0.015,0.048,0.045));
#1819=CARTESIAN_POINT('',(0.015,0.12,0.045));
#1820=CARTESIAN_POINT('',(-0.015,0.048,0.045));
#1821=CARTESIAN_POINT('',(-0.015,0.048,0.045));
#1822=CARTESIAN_POINT('',(-0.015,0.12,0.045));
#1823=CARTESIAN_POINT('Origin',(0.015,0.048,0.05));
#1824=CARTESIAN_POINT('',(0.015,0.06,0.05));
#1825=CARTESIAN_POINT('',(0.015,0.06,-0.05));
#1826=CARTESIAN_POINT('',(0.015,0.06,0.05));
#1827=CARTESIAN_POINT('',(0.015,-0.06,-0.05));
#1828=CARTESIAN_POINT('',(0.015,0.048,-0.05));
#1829=CARTESIAN_POINT('',(0.015,-0.06,0.05));
#1830=CARTESIAN_POINT('',(0.015,0.048,0.05));
#1831=CARTESIAN_POINT('',(0.015,-0.06,0.05));
#1832=CARTESIAN_POINT('',(0.015,-0.06,0.05));
#1833=CARTESIAN_POINT('',(0.015,0.048,0.05));
#1834=CARTESIAN_POINT('Origin',(-0.1,-0.06,0.05));
#1835=CARTESIAN_POINT('',(-0.015,-0.06,0.05));
#1836=CARTESIAN_POINT('',(-0.015,-0.06,0.05));
#1837=CARTESIAN_POINT('',(-0.1,-0.06,0.05));
#1838=CARTESIAN_POINT('',(-0.1,-0.06,0.05));
#1839=CARTESIAN_POINT('',(-0.1,-0.06,-0.05));
#1840=CARTESIAN_POINT('',(-0.1,-0.06,0.05));
#1841=CARTESIAN_POINT('',(-0.015,-0.06,-0.05));
#1842=CARTESIAN_POINT('',(-0.1,-0.06,-0.05));
#1843=CARTESIAN_POINT('',(-0.015,-0.06,0.05));
#1844=CARTESIAN_POINT('',(0.1,-0.06,-0.05));
#1845=CARTESIAN_POINT('',(-0.1,-0.06,-0.05));
#1846=CARTESIAN_POINT('',(0.1,-0.06,0.05));
#1847=CARTESIAN_POINT('',(0.1,-0.06,0.05));
#1848=CARTESIAN_POINT('',(-0.1,-0.06,0.05));
#1849=CARTESIAN_POINT('Origin',(-0.015,0.048,0.05));
#1850=CARTESIAN_POINT('',(-0.015,0.048,0.05));
#1851=CARTESIAN_POINT('Origin',(-0.1,0.06,0.05));
#1852=CARTESIAN_POINT('',(-0.1,0.06,-0.05));
#1853=CARTESIAN_POINT('',(-0.1,0.06,-0.05));
#1854=CARTESIAN_POINT('',(-0.1,0.06,0.05));
#1855=CARTESIAN_POINT('',(-0.1,0.06,0.05));
#1856=CARTESIAN_POINT('',(-0.1,0.06,0.05));
#1857=CARTESIAN_POINT('Origin',(0.06225,0.02225,0.05));
#1858=CARTESIAN_POINT('',(0.06225,0.02225,-0.05));
#1859=CARTESIAN_POINT('',(0.03775,0.02225,-0.05));
#1860=CARTESIAN_POINT('',(0.06225,0.02225,-0.05));
#1861=CARTESIAN_POINT('',(0.06225,0.02225,0.05));
#1862=CARTESIAN_POINT('',(0.06225,0.02225,0.05));
#1863=CARTESIAN_POINT('',(0.03775,0.02225,0.05));
#1864=CARTESIAN_POINT('',(0.06225,0.02225,0.05));
#1865=CARTESIAN_POINT('',(0.03775,0.02225,0.05));
#1866=CARTESIAN_POINT('Origin',(0.1,0.06,0.05));
#1867=CARTESIAN_POINT('',(0.1,0.06,0.05));
#1868=CARTESIAN_POINT('',(0.1,0.06,0.05));
#1869=CARTESIAN_POINT('',(0.1,0.06,-0.05));
#1870=CARTESIAN_POINT('',(0.1,0.06,0.05));
#1871=CARTESIAN_POINT('',(0.1,0.06,-0.05));
#1872=CARTESIAN_POINT('Origin',(0.1,0.06,0.05));
#1873=CARTESIAN_POINT('',(-0.015,0.06,-0.05));
#1874=CARTESIAN_POINT('',(-0.015,0.06,0.05));
#1875=CARTESIAN_POINT('',(-0.015,0.06,0.05));
#1876=CARTESIAN_POINT('',(0.1,0.06,-0.05));
#1877=CARTESIAN_POINT('',(0.1,0.06,0.05));
#1878=CARTESIAN_POINT('Origin',(0.,0.,-0.05));
#1879=CARTESIAN_POINT('',(0.1,-0.06,-0.05));
#1880=CARTESIAN_POINT('',(0.03775,-0.00225,-0.05));
#1881=CARTESIAN_POINT('',(0.03775,0.02225,-0.05));
#1882=CARTESIAN_POINT('',(0.06225,-0.00225,-0.05));
#1883=CARTESIAN_POINT('',(0.03775,-0.00225,-0.05));
#1884=CARTESIAN_POINT('',(0.06225,-0.00225,-0.05));
#1885=CARTESIAN_POINT('Origin',(0.,0.,-0.05));
#1886=CARTESIAN_POINT('',(-0.015,0.,-0.05));
#1887=CARTESIAN_POINT('',(-0.03775,0.02225,-0.05));
#1888=CARTESIAN_POINT('',(-0.06225,0.02225,-0.05));
#1889=CARTESIAN_POINT('',(-0.03775,0.02225,-0.05));
#1890=CARTESIAN_POINT('',(-0.06225,-0.00225,-0.05));
#1891=CARTESIAN_POINT('',(-0.06225,0.02225,-0.05));
#1892=CARTESIAN_POINT('',(-0.03775,-0.00225,-0.05));
#1893=CARTESIAN_POINT('',(-0.06225,-0.00225,-0.05));
#1894=CARTESIAN_POINT('',(-0.03775,-0.00225,-0.05));
#1895=CARTESIAN_POINT('Origin',(-0.03775,0.02225,0.05));
#1896=CARTESIAN_POINT('',(-0.03775,0.02225,0.05));
#1897=CARTESIAN_POINT('',(-0.03775,0.02225,0.05));
#1898=CARTESIAN_POINT('',(-0.06225,0.02225,0.05));
#1899=CARTESIAN_POINT('',(-0.03775,0.02225,0.05));
#1900=CARTESIAN_POINT('',(-0.06225,0.02225,0.05));
#1901=CARTESIAN_POINT('Origin',(-0.03775,-0.00225,0.05));
#1902=CARTESIAN_POINT('',(-0.03775,-0.00225,0.05));
#1903=CARTESIAN_POINT('',(-0.03775,-0.00225,0.05));
#1904=CARTESIAN_POINT('',(-0.03775,-0.00225,0.05));
#1905=CARTESIAN_POINT('Origin',(-0.06225,-0.00225,0.05));
#1906=CARTESIAN_POINT('',(-0.06225,-0.00225,0.05));
#1907=CARTESIAN_POINT('',(-0.06225,-0.00225,0.05));
#1908=CARTESIAN_POINT('',(-0.06225,-0.00225,0.05));
#1909=CARTESIAN_POINT('Origin',(-0.06225,0.02225,0.05));
#1910=CARTESIAN_POINT('',(-0.06225,0.02225,0.05));
#1911=CARTESIAN_POINT('Origin',(0.06225,-0.00225,0.05));
#1912=CARTESIAN_POINT('',(0.06225,-0.00225,0.05));
#1913=CARTESIAN_POINT('',(0.06225,-0.00225,0.05));
#1914=CARTESIAN_POINT('',(0.06225,-0.00225,0.05));
#1915=CARTESIAN_POINT('Origin',(0.03775,-0.00225,0.05));
#1916=CARTESIAN_POINT('',(0.03775,-0.00225,0.05));
#1917=CARTESIAN_POINT('',(0.03775,-0.00225,0.05));
#1918=CARTESIAN_POINT('',(0.03775,-0.00225,0.05));
#1919=CARTESIAN_POINT('Origin',(0.03775,0.02225,0.05));
#1920=CARTESIAN_POINT('',(0.03775,0.02225,0.05));
#1921=CARTESIAN_POINT('Origin',(0.,0.,0.05));
#1922=CARTESIAN_POINT('',(0.1,-0.06,0.05));
#1923=CARTESIAN_POINT('Origin',(0.,0.,0.05));
#1924=CARTESIAN_POINT('',(-0.015,0.148,0.05));
#1925=CARTESIAN_POINT('Origin',(0.1,-0.06,0.05));
#1926=CARTESIAN_POINT('Origin',(-0.015,0.148,0.05));
#1927=CARTESIAN_POINT('',(0.,0.,0.));
#1928=CARTESIAN_POINT('Origin',(0.0625,0.16856602,-0.0325));
#1929=CARTESIAN_POINT('',(-0.0375,0.16856602,-0.0575));
#1930=CARTESIAN_POINT('',(-0.0375,0.150888351172313,-0.0501776702316405));
#1931=CARTESIAN_POINT('Origin',(-0.0375,0.16856602,-0.0325));
#1932=CARTESIAN_POINT('',(-0.0625,0.16856602,-0.0575));
#1933=CARTESIAN_POINT('',(0.0625,0.16856602,-0.0575));
#1934=CARTESIAN_POINT('',(-0.0625,0.150888351172313,-0.0501776702316404));
#1935=CARTESIAN_POINT('Origin',(-0.0625,0.16856602,-0.0325));
#1936=CARTESIAN_POINT('',(0.0625,0.150888351172313,-0.0501776702316404));
#1937=CARTESIAN_POINT('Origin',(0.0625,0.150888351172313,-0.0501776702316405));
#1938=CARTESIAN_POINT('',(-0.0375,0.115355337655374,-0.014644659536719));
#1939=CARTESIAN_POINT('',(-0.0625,0.115355337655374,-0.014644659536719));
#1940=CARTESIAN_POINT('',(0.0625,0.115355337655374,-0.014644659536719));
#1941=CARTESIAN_POINT('',(-0.0375,0.150888351172313,-0.0501776702316405));
#1942=CARTESIAN_POINT('',(-0.0625,0.150888351172313,-0.0501776702316405));
#1943=CARTESIAN_POINT('Origin',(0.0625,0.16856602,-0.0324999999999999));
#1944=CARTESIAN_POINT('',(-0.0375,0.16856602,-0.0825));
#1945=CARTESIAN_POINT('',(-0.0625,0.16856602,-0.0825));
#1946=CARTESIAN_POINT('',(0.0625,0.16856602,-0.0825));
#1947=CARTESIAN_POINT('',(-0.0375,0.133210682344626,-0.067855340463281));
#1948=CARTESIAN_POINT('Origin',(-0.0375,0.16856602,-0.0324999999999999));
#1949=CARTESIAN_POINT('',(-0.0625,0.133210682344626,-0.067855340463281));
#1950=CARTESIAN_POINT('',(0.0625,0.133210682344626,-0.067855340463281));
#1951=CARTESIAN_POINT('Origin',(-0.0625,0.16856602,-0.0324999999999999));
#1952=CARTESIAN_POINT('Origin',(0.0625,0.16856602,-0.0325));
#1953=CARTESIAN_POINT('',(0.0375,0.150888351172313,-0.0501776702316405));
#1954=CARTESIAN_POINT('',(0.0375,0.16856602,-0.0575));
#1955=CARTESIAN_POINT('Origin',(0.0375,0.16856602,-0.0325));
#1956=CARTESIAN_POINT('',(0.0625,0.150888351172313,-0.0501776702316404));
#1957=CARTESIAN_POINT('',(0.0625,0.150888351172313,-0.0501776702316404));
#1958=CARTESIAN_POINT('',(0.0625,0.16856602,-0.0575));
#1959=CARTESIAN_POINT('Origin',(0.0625,0.16856602,-0.0325));
#1960=CARTESIAN_POINT('',(0.0625,0.16856602,-0.0575));
#1961=CARTESIAN_POINT('Origin',(0.0625,0.08,0.));
#1962=CARTESIAN_POINT('',(-0.0375,0.02,0.));
#1963=CARTESIAN_POINT('',(-0.0625,0.02,0.));
#1964=CARTESIAN_POINT('',(0.0625,0.02,0.));
#1965=CARTESIAN_POINT('',(-0.0375,0.08,0.));
#1966=CARTESIAN_POINT('',(-0.0375,0.225,0.));
#1967=CARTESIAN_POINT('',(-0.0625,0.08,-8.53702498020082E-18));
#1968=CARTESIAN_POINT('',(0.0625,0.08,-8.53702498020082E-18));
#1969=CARTESIAN_POINT('',(-0.0625,0.08,0.));
#1970=CARTESIAN_POINT('Origin',(0.0625,0.02,-0.025));
#1971=CARTESIAN_POINT('',(-0.0375,0.08,-0.025));
#1972=CARTESIAN_POINT('',(-0.0625,0.08,-0.025));
#1973=CARTESIAN_POINT('',(0.0625,0.08,-0.025));
#1974=CARTESIAN_POINT('',(-0.0375,0.02,-0.025));
#1975=CARTESIAN_POINT('',(-0.0375,0.02,-0.025));
#1976=CARTESIAN_POINT('',(-0.0625,0.02,-0.025));
#1977=CARTESIAN_POINT('',(0.0625,0.02,-0.025));
#1978=CARTESIAN_POINT('',(-0.0625,0.02,-0.025));
#1979=CARTESIAN_POINT('Origin',(0.0625,0.08,0.));
#1980=CARTESIAN_POINT('',(0.0625,0.08,-8.53702498020082E-18));
#1981=CARTESIAN_POINT('',(0.0375,0.08,-8.53702498020082E-18));
#1982=CARTESIAN_POINT('',(0.0625,0.08,-8.53702498020082E-18));
#1983=CARTESIAN_POINT('',(0.0375,0.02,0.));
#1984=CARTESIAN_POINT('',(0.0375,-0.185,0.));
#1985=CARTESIAN_POINT('',(0.0625,0.02,0.));
#1986=CARTESIAN_POINT('',(0.0625,0.02,0.));
#1987=CARTESIAN_POINT('',(0.0625,0.08,0.));
#1988=CARTESIAN_POINT('Origin',(0.0625,0.02,-0.025));
#1989=CARTESIAN_POINT('',(0.0625,0.02,-0.025));
#1990=CARTESIAN_POINT('',(0.0375,0.02,-0.025));
#1991=CARTESIAN_POINT('',(0.0625,0.02,-0.025));
#1992=CARTESIAN_POINT('',(0.0375,0.08,-0.025));
#1993=CARTESIAN_POINT('',(0.0375,0.02,-0.025));
#1994=CARTESIAN_POINT('',(0.0625,0.08,-0.025));
#1995=CARTESIAN_POINT('',(0.0625,0.08,-0.025));
#1996=CARTESIAN_POINT('',(0.0625,0.02,-0.025));
#1997=CARTESIAN_POINT('Origin',(0.0625,0.08,-0.0500000000000001));
#1998=CARTESIAN_POINT('Origin',(-0.0375,0.08,-0.0500000000000001));
#1999=CARTESIAN_POINT('Origin',(-0.0625,0.08,-0.0500000000000001));
#2000=CARTESIAN_POINT('Origin',(0.0625,0.08,-0.0500000000000001));
#2001=CARTESIAN_POINT('',(0.0625,0.115355337655374,-0.014644659536719));
#2002=CARTESIAN_POINT('',(0.0375,0.115355337655374,-0.014644659536719));
#2003=CARTESIAN_POINT('',(0.0625,0.115355337655374,-0.014644659536719));
#2004=CARTESIAN_POINT('Origin',(0.0375,0.08,-0.0500000000000001));
#2005=CARTESIAN_POINT('Origin',(0.0625,0.08,-0.0500000000000001));
#2006=CARTESIAN_POINT('Origin',(0.0625,0.08,-0.05));
#2007=CARTESIAN_POINT('',(0.0625,0.02,0.));
#2008=CARTESIAN_POINT('',(0.0625,0.0976776688276869,-0.0323223297683595));
#2009=CARTESIAN_POINT('Origin',(0.0625,0.08,-0.05));
#2010=CARTESIAN_POINT('',(0.0625,0.133210682344626,-0.067855340463281));
#2011=CARTESIAN_POINT('',(0.0625,0.0976776688276869,-0.0323223297683595));
#2012=CARTESIAN_POINT('',(0.0625,0.16856602,-0.0825));
#2013=CARTESIAN_POINT('Origin',(0.0625,0.16856602,-0.0324999999999999));
#2014=CARTESIAN_POINT('',(0.0625,0.49,-0.0825));
#2015=CARTESIAN_POINT('',(0.0625,0.16856602,-0.0825));
#2016=CARTESIAN_POINT('',(0.0625,0.49,-0.0575));
#2017=CARTESIAN_POINT('',(0.0625,0.49,-0.0825));
#2018=CARTESIAN_POINT('',(0.0625,0.49,-0.0575));
#2019=CARTESIAN_POINT('',(0.0625,0.150888351172313,-0.0501776702316405));
#2020=CARTESIAN_POINT('Origin',(0.0625,0.150888351172313,-0.0501776702316405));
#2021=CARTESIAN_POINT('',(0.0375,0.150888351172313,-0.0501776702316405));
#2022=CARTESIAN_POINT('Origin',(0.1,0.51,0.));
#2023=CARTESIAN_POINT('',(0.044779404685324,0.51,-0.075220595314676));
#2024=CARTESIAN_POINT('',(0.044779404685324,0.51,-0.064779404685324));
#2025=CARTESIAN_POINT('',(0.044779404685324,0.51,-0.0825));
#2026=CARTESIAN_POINT('',(0.055220595314676,0.51,-0.064779404685324));
#2027=CARTESIAN_POINT('',(0.0375,0.51,-0.064779404685324));
#2028=CARTESIAN_POINT('',(0.055220595314676,0.51,-0.075220595314676));
#2029=CARTESIAN_POINT('',(0.055220595314676,0.51,-0.0575));
#2030=CARTESIAN_POINT('',(0.0625,0.51,-0.075220595314676));
#2031=CARTESIAN_POINT('Origin',(-0.0625,0.02,-0.025));
#2032=CARTESIAN_POINT('',(-0.0625,0.02,0.));
#2033=CARTESIAN_POINT('',(-0.0552205953146759,0.,-0.017720595314676));
#2034=CARTESIAN_POINT('',(-0.0598818239561616,0.012806620439397,-0.0223818239561616));
#2035=CARTESIAN_POINT('',(-0.0552205953146759,0.,-0.00727940468532405));
#2036=CARTESIAN_POINT('',(-0.0552205953146759,0.,0.));
#2037=CARTESIAN_POINT('',(-0.0598818239561616,0.012806620439397,-0.00261817604383839));
#2038=CARTESIAN_POINT('Origin',(0.0625,0.49,-0.0825));
#2039=CARTESIAN_POINT('',(0.0375,0.49,-0.0825));
#2040=CARTESIAN_POINT('',(0.0625,0.49,-0.0825));
#2041=CARTESIAN_POINT('',(0.0375,0.49,-0.0825));
#2042=CARTESIAN_POINT('',(0.0625,0.49,-0.0825));
#2043=CARTESIAN_POINT('Origin',(0.0375,0.49,-0.0825));
#2044=CARTESIAN_POINT('',(0.0375,0.49,-0.0575));
#2045=CARTESIAN_POINT('',(0.0375,0.49,-0.0825));
#2046=CARTESIAN_POINT('',(0.0375,0.49,-0.0575));
#2047=CARTESIAN_POINT('Origin',(0.0375,0.49,-0.0575));
#2048=CARTESIAN_POINT('',(0.0625,0.49,-0.0575));
#2049=CARTESIAN_POINT('',(0.0625,0.49,-0.0575));
#2050=CARTESIAN_POINT('Origin',(0.0625,0.49,-0.0575));
#2051=CARTESIAN_POINT('Origin',(0.,0.51,0.));
#2052=CARTESIAN_POINT('',(-0.055220595314676,0.51,-0.075220595314676));
#2053=CARTESIAN_POINT('',(-0.055220595314676,0.51,-0.064779404685324));
#2054=CARTESIAN_POINT('',(-0.055220595314676,0.51,-0.0825));
#2055=CARTESIAN_POINT('',(-0.044779404685324,0.51,-0.064779404685324));
#2056=CARTESIAN_POINT('',(-0.0625,0.51,-0.064779404685324));
#2057=CARTESIAN_POINT('',(-0.044779404685324,0.51,-0.075220595314676));
#2058=CARTESIAN_POINT('',(-0.044779404685324,0.51,-0.0575));
#2059=CARTESIAN_POINT('',(-0.0375,0.51,-0.075220595314676));
#2060=CARTESIAN_POINT('Origin',(-0.0625,0.49,-0.0825));
#2061=CARTESIAN_POINT('',(-0.0625,0.49,-0.0825));
#2062=CARTESIAN_POINT('',(-0.0625,0.49,-0.0575));
#2063=CARTESIAN_POINT('',(-0.0625,0.49,-0.0825));
#2064=CARTESIAN_POINT('',(-0.0625,0.49,-0.0575));
#2065=CARTESIAN_POINT('',(-0.0625,0.49,-0.0825));
#2066=CARTESIAN_POINT('Origin',(-0.0625,0.49,-0.0575));
#2067=CARTESIAN_POINT('',(-0.0375,0.49,-0.0575));
#2068=CARTESIAN_POINT('',(0.0625,0.49,-0.0575));
#2069=CARTESIAN_POINT('',(-0.0375,0.49,-0.0575));
#2070=CARTESIAN_POINT('Origin',(-0.0375,0.49,-0.0575));
#2071=CARTESIAN_POINT('',(-0.0375,0.49,-0.0825));
#2072=CARTESIAN_POINT('',(-0.0375,0.49,-0.0825));
#2073=CARTESIAN_POINT('',(-0.0375,0.49,-0.0825));
#2074=CARTESIAN_POINT('Origin',(-0.0375,0.49,-0.0825));
#2075=CARTESIAN_POINT('',(0.0625,0.49,-0.0825));
#2076=CARTESIAN_POINT('Origin',(0.0375,0.225,-0.23));
#2077=CARTESIAN_POINT('',(0.0375,0.225,-0.0825));
#2078=CARTESIAN_POINT('',(0.0375,0.225,-0.0575));
#2079=CARTESIAN_POINT('',(0.0375,0.225,-0.23));
#2080=CARTESIAN_POINT('',(-0.0375,0.225,-0.0575));
#2081=CARTESIAN_POINT('',(0.0625,0.225,-0.0575));
#2082=CARTESIAN_POINT('',(-0.0375,0.225,-0.0825));
#2083=CARTESIAN_POINT('',(-0.0375,0.225,-0.23));
#2084=CARTESIAN_POINT('',(0.0625,0.225,-0.0825));
#2085=CARTESIAN_POINT('Origin',(0.0375,-0.185,-0.23));
#2086=CARTESIAN_POINT('',(0.0375,0.49,-0.0575));
#2087=CARTESIAN_POINT('',(0.0375,0.16856602,-0.0825));
#2088=CARTESIAN_POINT('',(0.0375,0.16856602,-0.0825));
#2089=CARTESIAN_POINT('',(0.0375,0.133210682344626,-0.067855340463281));
#2090=CARTESIAN_POINT('Origin',(0.0375,0.16856602,-0.0324999999999999));
#2091=CARTESIAN_POINT('',(0.0375,0.0976776688276869,-0.0323223297683595));
#2092=CARTESIAN_POINT('',(0.0375,0.0976776688276869,-0.0323223297683595));
#2093=CARTESIAN_POINT('Origin',(0.0375,0.08,-0.05));
#2094=CARTESIAN_POINT('',(0.0375,0.02,0.));
#2095=CARTESIAN_POINT('Origin',(-0.0375,0.225,-0.23));
#2096=CARTESIAN_POINT('',(-0.0375,0.0976776688276869,-0.0323223297683595));
#2097=CARTESIAN_POINT('Origin',(-0.0375,0.08,-0.05));
#2098=CARTESIAN_POINT('',(-0.0375,0.0976776688276869,-0.0323223297683595));
#2099=CARTESIAN_POINT('',(-0.0375,0.16856602,-0.0825));
#2100=CARTESIAN_POINT('',(-0.0375,0.49,-0.0575));
#2101=CARTESIAN_POINT('',(-0.0375,0.02,0.));
#2102=CARTESIAN_POINT('Origin',(0.0375,0.235,-0.23));
#2103=CARTESIAN_POINT('',(0.0375,0.235,-0.0825));
#2104=CARTESIAN_POINT('',(0.0375,0.235,-0.0575));
#2105=CARTESIAN_POINT('',(0.0375,0.235,-0.23));
#2106=CARTESIAN_POINT('',(0.0375,0.49,-0.0575));
#2107=CARTESIAN_POINT('',(0.0375,0.16856602,-0.0825));
#2108=CARTESIAN_POINT('Origin',(-0.0375,0.235,-0.23));
#2109=CARTESIAN_POINT('',(-0.0375,0.235,-0.0825));
#2110=CARTESIAN_POINT('',(-0.0375,0.235,-0.0575));
#2111=CARTESIAN_POINT('',(-0.0375,0.235,-0.23));
#2112=CARTESIAN_POINT('',(0.0625,0.235,-0.0575));
#2113=CARTESIAN_POINT('',(0.0625,0.235,-0.0825));
#2114=CARTESIAN_POINT('Origin',(-0.0375,0.645,-0.23));
#2115=CARTESIAN_POINT('',(-0.0375,0.49,-0.0575));
#2116=CARTESIAN_POINT('',(-0.0375,0.16856602,-0.0825));
#2117=CARTESIAN_POINT('Origin',(-0.0625,0.08,-0.05));
#2118=CARTESIAN_POINT('',(-0.0625,0.49,-0.0575));
#2119=CARTESIAN_POINT('',(-0.0625,0.16856602,-0.0825));
#2120=CARTESIAN_POINT('',(-0.0625,0.0976776688276869,-0.0323223297683595));
#2121=CARTESIAN_POINT('',(-0.0625,0.0976776688276869,-0.0323223297683595));
#2122=CARTESIAN_POINT('Origin',(-0.0625,0.08,-0.05));
#2123=CARTESIAN_POINT('Origin',(-0.0375,0.02,-0.025));
#2124=CARTESIAN_POINT('',(-0.044779404685324,0.,-0.017720595314676));
#2125=CARTESIAN_POINT('',(-0.0401181760438384,0.012806620439397,-0.0223818239561616));
#2126=CARTESIAN_POINT('',(0.,0.,-0.017720595314676));
#2127=CARTESIAN_POINT('Origin',(-0.0375,0.02,0.));
#2128=CARTESIAN_POINT('',(-0.044779404685324,0.,-0.00727940468532405));
#2129=CARTESIAN_POINT('',(-0.0401181760438384,0.012806620439397,-0.00261817604383839));
#2130=CARTESIAN_POINT('',(-0.044779404685324,0.,0.));
#2131=CARTESIAN_POINT('Origin',(-0.0625,0.02,0.));
#2132=CARTESIAN_POINT('',(0.,0.,-0.00727940468532405));
#2133=CARTESIAN_POINT('Origin',(0.,0.,0.));
#2134=CARTESIAN_POINT('Origin',(0.0625,0.02,-0.025));
#2135=CARTESIAN_POINT('',(0.055220595314676,0.,-0.017720595314676));
#2136=CARTESIAN_POINT('',(0.0598818239561616,0.012806620439397,-0.0223818239561616));
#2137=CARTESIAN_POINT('',(0.0447794046853241,0.,-0.017720595314676));
#2138=CARTESIAN_POINT('',(0.1,0.,-0.017720595314676));
#2139=CARTESIAN_POINT('',(0.0401181760438384,0.012806620439397,-0.0223818239561616));
#2140=CARTESIAN_POINT('Origin',(0.0625,0.02,0.));
#2141=CARTESIAN_POINT('',(0.055220595314676,0.,-0.00727940468532405));
#2142=CARTESIAN_POINT('',(0.0598818239561616,0.012806620439397,-0.00261817604383839));
#2143=CARTESIAN_POINT('',(0.055220595314676,0.,0.));
#2144=CARTESIAN_POINT('Origin',(0.0375,0.02,0.));
#2145=CARTESIAN_POINT('',(0.0447794046853241,0.,-0.00727940468532405));
#2146=CARTESIAN_POINT('',(0.0401181760438384,0.012806620439397,-0.00261817604383839));
#2147=CARTESIAN_POINT('',(0.1,0.,-0.00727940468532405));
#2148=CARTESIAN_POINT('Origin',(0.0375,0.02,-0.025));
#2149=CARTESIAN_POINT('',(0.0447794046853241,0.,0.));
#2150=CARTESIAN_POINT('Origin',(0.1,0.,0.));
#2151=CARTESIAN_POINT('Origin',(0.0625,0.16856602,-0.0324999999999999));
#2152=CARTESIAN_POINT('',(0.0625,0.133210682344626,-0.067855340463281));
#2153=CARTESIAN_POINT('',(0.0625,0.16856602,-0.0825));
#2154=CARTESIAN_POINT('Origin',(0.0625,0.16856602,-0.0825));
#2155=CARTESIAN_POINT('Origin',(0.0625,0.0976776688276869,-0.0323223297683595));
#2156=CARTESIAN_POINT('',(0.0625,0.0976776688276869,-0.0323223297683595));
#2157=CARTESIAN_POINT('Origin',(0.0625,0.08,-0.05));
#2158=CARTESIAN_POINT('Origin',(0.0625,0.08,-0.05));
#2159=CARTESIAN_POINT('',(0.0625,0.0976776688276869,-0.0323223297683595));
#2160=CARTESIAN_POINT('Origin',(0.0625,0.0976776688276869,-0.0323223297683595));
#2161=CARTESIAN_POINT('Origin',(0.0625,0.49,-0.0575));
#2162=CARTESIAN_POINT('',(0.,0.06,7.34788079488412E-18));
#2163=CARTESIAN_POINT('',(0.,-1.38777878078145E-17,-0.23));
#2164=UNCERTAINTY_MEASURE_WITH_UNIT(LENGTH_MEASURE(0.000393700787401575),
#2173,'DISTANCE_ACCURACY_VALUE',
'Maximum model space distance between geometric entities at asserted c
onnectivities');
#2165=UNCERTAINTY_MEASURE_WITH_UNIT(LENGTH_MEASURE(0.000393700787401575),
#2173,'DISTANCE_ACCURACY_VALUE',
'Maximum model space distance between geometric entities at asserted c
onnectivities');
#2166=UNCERTAINTY_MEASURE_WITH_UNIT(LENGTH_MEASURE(0.000393700787401575),
#2173,'DISTANCE_ACCURACY_VALUE',
'Maximum model space distance between geometric entities at asserted c
onnectivities');
#2167=UNCERTAINTY_MEASURE_WITH_UNIT(LENGTH_MEASURE(0.000393700787401575),
#2173,'DISTANCE_ACCURACY_VALUE',
'Maximum model space distance between geometric entities at asserted c
onnectivities');
#2168=(
GEOMETRIC_REPRESENTATION_CONTEXT(3)
GLOBAL_UNCERTAINTY_ASSIGNED_CONTEXT((#2164))
GLOBAL_UNIT_ASSIGNED_CONTEXT((#2173,#2177,#2178))
REPRESENTATION_CONTEXT('','3D')
);
#2169=(
GEOMETRIC_REPRESENTATION_CONTEXT(3)
GLOBAL_UNCERTAINTY_ASSIGNED_CONTEXT((#2165))
GLOBAL_UNIT_ASSIGNED_CONTEXT((#2173,#2177,#2178))
REPRESENTATION_CONTEXT('','3D')
);
#2170=(
GEOMETRIC_REPRESENTATION_CONTEXT(3)
GLOBAL_UNCERTAINTY_ASSIGNED_CONTEXT((#2166))
GLOBAL_UNIT_ASSIGNED_CONTEXT((#2173,#2177,#2178))
REPRESENTATION_CONTEXT('','3D')
);
#2171=(
GEOMETRIC_REPRESENTATION_CONTEXT(3)
GLOBAL_UNCERTAINTY_ASSIGNED_CONTEXT((#2167))
GLOBAL_UNIT_ASSIGNED_CONTEXT((#2173,#2177,#2178))
REPRESENTATION_CONTEXT('','3D')
);
#2172=DIMENSIONAL_EXPONENTS(1.,0.,0.,0.,0.,0.,0.);
#2173=(
CONVERSION_BASED_UNIT('inch',#2176)
LENGTH_UNIT()
NAMED_UNIT(#2172)
);
#2174=(
LENGTH_UNIT()
NAMED_UNIT(*)
SI_UNIT(.MILLI.,.METRE.)
);
#2175=(
LENGTH_UNIT()
NAMED_UNIT(*)
SI_UNIT($,.METRE.)
);
#2176=LENGTH_MEASURE_WITH_UNIT(LENGTH_MEASURE(25.4),#2174);
#2177=(
NAMED_UNIT(*)
PLANE_ANGLE_UNIT()
SI_UNIT($,.RADIAN.)
);
#2178=(
NAMED_UNIT(*)
SI_UNIT($,.STERADIAN.)
SOLID_ANGLE_UNIT()
);
#2179=SHAPE_DEFINITION_REPRESENTATION(#2182,#2187);
#2180=SHAPE_DEFINITION_REPRESENTATION(#2183,#2188);
#2181=SHAPE_DEFINITION_REPRESENTATION(#2184,#2189);
#2182=PRODUCT_DEFINITION_SHAPE('',$,#2191);
#2183=PRODUCT_DEFINITION_SHAPE('',$,#2192);
#2184=PRODUCT_DEFINITION_SHAPE('',$,#2193);
#2185=PRODUCT_DEFINITION_SHAPE($,$,#17);
#2186=PRODUCT_DEFINITION_SHAPE($,$,#18);
#2187=SHAPE_REPRESENTATION('',(#1376,#1463,#1464),#2168);
#2188=SHAPE_REPRESENTATION('',(#1377),#2169);
#2189=SHAPE_REPRESENTATION('',(#1400),#2170);
#2190=PRODUCT_DEFINITION_CONTEXT('part definition',#2201,'design');
#2191=PRODUCT_DEFINITION('(Nicht gespeichert)','(Nicht gespeichert)',#2194,
#2190);
#2192=PRODUCT_DEFINITION('_TSM-102-01-SH_body','_TSM-102-01-SH_body',#2195,
#2190);
#2193=PRODUCT_DEFINITION('_T-1S6-08(-01-2-SH)','_T-1S6-08(-01-2-SH)',#2196,
#2190);
#2194=PRODUCT_DEFINITION_FORMATION('',$,#2203);
#2195=PRODUCT_DEFINITION_FORMATION('',$,#2204);
#2196=PRODUCT_DEFINITION_FORMATION('',$,#2205);
#2197=PRODUCT_RELATED_PRODUCT_CATEGORY('(Nicht gespeichert)',
'(Nicht gespeichert)',(#2203));
#2198=PRODUCT_RELATED_PRODUCT_CATEGORY('_TSM-102-01-SH_body',
'_TSM-102-01-SH_body',(#2204));
#2199=PRODUCT_RELATED_PRODUCT_CATEGORY('_T-1S6-08(-01-2-SH)',
'_T-1S6-08(-01-2-SH)',(#2205));
#2200=APPLICATION_PROTOCOL_DEFINITION('international standard',
'automotive_design',2009,#2201);
#2201=APPLICATION_CONTEXT(
'Core Data for Automotive Mechanical Design Process');
#2202=PRODUCT_CONTEXT('part definition',#2201,'mechanical');
#2203=PRODUCT('(Nicht gespeichert)','(Nicht gespeichert)',$,(#2202));
#2204=PRODUCT('_TSM-102-01-SH_body','_TSM-102-01-SH_body',$,(#2202));
#2205=PRODUCT('_T-1S6-08(-01-2-SH)','_T-1S6-08(-01-2-SH)',$,(#2202));
#2206=PRESENTATION_STYLE_ASSIGNMENT((#2209));
#2207=PRESENTATION_STYLE_ASSIGNMENT((#2210));
#2208=PRESENTATION_STYLE_ASSIGNMENT((#2211));
#2209=SURFACE_STYLE_USAGE(.BOTH.,#2212);
#2210=SURFACE_STYLE_USAGE(.BOTH.,#2213);
#2211=SURFACE_STYLE_USAGE(.BOTH.,#2214);
#2212=SURFACE_SIDE_STYLE('',(#2215));
#2213=SURFACE_SIDE_STYLE('',(#2216));
#2214=SURFACE_SIDE_STYLE('',(#2217));
#2215=SURFACE_STYLE_FILL_AREA(#2218);
#2216=SURFACE_STYLE_FILL_AREA(#2219);
#2217=SURFACE_STYLE_FILL_AREA(#2220);
#2218=FILL_AREA_STYLE('Stahl - satiniert',(#2221));
#2219=FILL_AREA_STYLE('Opaque(128,128,128)',(#2222));
#2220=FILL_AREA_STYLE('Opaque(255,255,0)',(#2223));
#2221=FILL_AREA_STYLE_COLOUR('Stahl - satiniert',#2224);
#2222=FILL_AREA_STYLE_COLOUR('Opaque(128,128,128)',#2225);
#2223=FILL_AREA_STYLE_COLOUR('Opaque(255,255,0)',#2226);
#2224=COLOUR_RGB('Stahl - satiniert',0.627450980392157,0.627450980392157,
0.627450980392157);
#2225=COLOUR_RGB('Opaque(128,128,128)',0.501960784313725,0.501960784313725,
0.501960784313725);
#2226=COLOUR_RGB('Opaque(255,255,0)',1.,1.,0.);
ENDSEC;
END-ISO-10303-21;
